<svg id="Capa_1" enable-background="new 0 0 512 512" height="512" viewBox="0 0 512 512" width="512" xmlns="http://www.w3.org/2000/svg"><g><path d="m149.938 467.474c14.774-.001 26.469-15.273 20.327-30.397-.517-.929-9.625-26.817-39.026-56.219-29.696-29.696-55.692-38.733-56.218-39.025-8.345-3.389-17.493-1.529-23.875 4.854-11.024 11.024-4.7 24.178-4.691 24.278 15.761 38.384 56.363 78.946 94.676 94.677.451.139 3.584 1.832 8.807 1.832zm-89.614-102.204-.143-.348c-2.308-5.681 3.36-11.57 9.202-9.194.431.241 24.054 8.535 51.253 35.734 27.376 27.375 35.49 50.816 35.736 51.256-.012.101 2.005 4.062-1.564 7.634-3.653 3.656-7.878 1.413-7.981 1.422-34.623-14.217-72.265-51.827-86.503-86.504z"/><path d="m159.229 274.806 8.519-8.519c2.928-2.928 2.928-7.674 0-10.602s-7.675-2.928-10.602 0l-8.519 8.519c-2.928 2.928-2.928 7.675 0 10.603 2.926 2.926 7.674 2.927 10.602-.001z"/><path d="m247.893 363.471 8.519-8.519c2.928-2.928 2.928-7.675 0-10.602-2.928-2.928-7.675-2.928-10.602 0l-8.519 8.519c-2.928 2.928-2.928 7.675 0 10.603 2.927 2.926 7.675 2.926 10.602-.001z"/><path d="m210.715 332.751c4.131-.284 7.25-3.862 6.966-7.993s-3.871-7.25-7.993-6.966c-8.747.601-15.984-6.64-15.383-15.383.284-4.131-2.835-7.709-6.965-7.993-4.135-.285-7.709 2.835-7.993 6.965-1.222 17.776 13.51 32.596 31.368 31.37z"/><path d="m95.551 486.684c3.472 2.257 8.115 1.273 10.372-2.198s1.273-8.115-2.198-10.372c-68.951-44.829-111.135-132.027-76.181-157.191 19.353-13.932 57.98-3.732 94.941 23.331 31.633 23.161 62.622 59.617 74.41 96.475 17.14 53.59-16.074 73.568-67.884 51.105-3.8-1.648-8.214.097-9.86 3.896-1.647 3.799.097 8.214 3.896 9.86 15.879 6.885 30.687 10.313 43.667 10.313 25.163 0 36.332-13.477 36.232-13.414 21.225-21.224 38.674-42.771 52.977-63.391 14.535 5.236 30.505 1.45 41.13-9.175 16.181-16.181 15.262-43.062-2.618-57.972 8.197-17.737 13.647-32.744 17.088-43.519 18.259-1.146 32.368-16.982 30.801-35.728 12.199-4.628 31.355-13.417 53.155-28.949 18.083 5.816 37.32-3.443 44.248-20.782 4.466-1.793 8.553-4.47 11.975-7.892 1.972-1.972 53.094-53.094 49.832-49.832 13.957-13.956 13.957-36.665 0-50.622-7.773-7.774-18.589-11.604-29.846-10.191 2.933-23.242-16.712-42.955-40.023-40.001 2.938-23.182-16.631-42.975-40.018-40.04 1.339-10.607-2.047-21.702-10.174-29.829-13.955-13.954-36.66-13.957-50.617-.005-1.575 1.575-48.936 48.935-49.837 49.837-8.804 8.804-12.048 21.089-9.745 32.465-27.535 31.091-41.345 59.607-47.889 76.929-18.559-1.562-34.598 12.4-35.735 30.792-10.773 3.441-25.774 8.89-43.501 17.083-14.926-17.888-41.798-18.792-57.972-2.618-10.899 10.898-14.273 27.018-9.185 41.136-36.958 25.636-62.249 51.947-63.381 52.97-38.545 38.544 9.822 130.64 81.94 177.529zm190.898-71.363c-5.804 5.803-13.998 8.163-21.735 6.701 8.354-12.967 16.019-26.319 22.889-39.869 8.248 9.456 8.039 23.974-1.154 33.168zm-189.672-189.672c9.146-9.146 23.688-9.41 33.166-1.154-13.548 6.869-26.9 14.535-39.868 22.888-1.46-7.736.899-15.931 6.702-21.734zm234.862-114.63 29.226-29.226c2.453 14.927 14.306 26.921 29.426 29.409l-29.134 29.134c-8.425-1.077-16.801 1.05-22.657 4.654-13.89-5.709-17.272-23.559-6.861-33.971zm98.683 40.195-23.846 23.846-8.087-8.087c-15.228-15-16.932-17.561-21.811-20.852l24.325-24.325c2.46 14.681 13.839 26.808 29.419 29.418zm-67.524 4.78c6.554 2.018 6.214 2.865 37.789 34.381-15.042 2.476-26.903 14.323-29.408 29.428l-29.244-29.244c-15.148-15.148.004-41.017 20.863-34.565zm43.678 90.49c-8.612 0-16.179-5.331-19.271-12.97-8.586-21.214 18.296-38.329 33.98-22.54 12.996 12.981 3.804 35.51-14.709 35.51zm35.307-26.691c-1.046-6.351-3.778-12.267-7.977-17.218-1.827-2.16-2.356-2.485-16.727-16.913l23.846-23.846c2.498 15.062 14.364 26.965 29.399 29.436zm49.147-78.565c8.11 8.11 8.111 21.306.001 29.417 0 0-.001 0-.001.001-8.163 8.163-21.322 8.096-29.418 0-8.11-8.111-8.111-21.306 0-29.417 8.13-8.13 21.287-8.132 29.418-.001zm-40.02-10.603c-8.111 8.111-21.308 8.111-29.419 0-12.963-12.963-3.903-35.501 14.709-35.501 18.396.001 27.838 22.374 14.71 35.501zm-40.021-69.438c8.111 8.111 8.111 21.307.001 29.417 0 0-.001 0-.001.001-.09.079-.073.064-.098.089-7.139 7.047-18.065 7.833-26.044 2.581-.005-.003-.011-.006-.016-.009-11.005-7.266-12.572-22.766-3.259-32.079 8.129-8.129 21.287-8.13 29.417 0zm-40.018-10.603s-.001.001-.002.001c-13.597 13.597-37.276 2.884-35.406-16.704 1.016-10.637 9.929-18.797 20.697-18.797 18.393 0 27.84 22.368 14.711 35.5zm-79.252 20.415 29.244-29.244c1.402 8.413 4.496 13.175 9.986 19.433.453.249 6.919 7.89 19.432 9.986-31.423 31.339-29.141 29.332-31.051 30.838-10.191 8.088-25.31 4.89-31.349-6.691-4.077-7.841-2.834-17.751 3.738-24.322zm-59.552 117.782c2.717 2.249 21.137 21.363 22.795 22.457 4.216 2.787 9.898.655 11.313-4.127.759-2.566.115-5.434-1.887-7.436-21.676-21.644-21.978-22.456-26.626-25.264 5.84-15.275 17.675-39.596 40.5-66.605 7.778 9.919 20.105 14.995 32.691 13.416-1.694 13.422 4.369 27.076 16.11 34.6-9.12 13.517-8.01 31.646 3.113 44.016.974 1.076 51.252 51.317 51.355 51.418-17.885 12.069-33.393 19.195-43.737 23.167-3.965-6.529-4.96-5.639-52.356-53.699-2.928-2.928-7.675-2.928-10.602 0-2.938 2.938-2.918 7.684 0 10.602 49.581 49.651 47.519 47.377 48.724 48.874 5.682 7.035 5.307 17.458-1.284 24.049-6.975 6.975-18.423 7.057-25.483 0-94.636-95.011-92.416-90.395-93.826-98.432-2.932-16.607 16.42-27.632 29.2-17.036zm-41.899 26.741c4.231 10.01 5.821 8.47 95.922 99.33 2.437 2.53 6.292 5.309 10.485 7.076-9.23 28.215-31.794 83.287-80.221 139.987-.209-.769 2.638-44.225-47.644-99.897-28.755-31.882-75.766-66.052-118.524-66.274-.001 0-.002 0-.003 0 56.699-48.427 111.771-70.992 139.985-80.222z"/></g></svg>