<svg id="Capa_1" enable-background="new 0 0 509.803 509.803" height="512" viewBox="0 0 509.803 509.803" width="512" xmlns="http://www.w3.org/2000/svg"><g><path d="m400.207 74.096c-71.808-98.799-218.809-98.791-290.611 0-34.216 47.074-43.534 105.832-25.565 161.201 7.069 21.787 14.349 38.945 18.645 48.417-27.661 28.415-7.431 76.362 32.227 76.362 0 26.727 23.347 47.839 50.265 44.682 4.372 39.748 65.974 100.77 69.735 105.045 1.065-1.211 65.228-64.067 69.735-105.045 26.978 3.164 50.265-18.016 50.265-44.682 39.654 0 59.889-47.946 32.227-76.362 4.296-9.472 11.575-26.63 18.645-48.417 17.966-55.369 8.648-114.125-25.568-161.201zm-145.305-44.019c101.752 0 173.775 99.079 142.336 195.961-6.391 19.696-13.033 35.477-17.025 44.363-26.957-3.186-50.31 17.953-50.31 44.676-17.399 0-32.513 9.934-39.997 24.42-21.177-12.283-47.884-12.832-70.006 0-7.484-14.486-22.598-24.42-39.997-24.42 0-26.709-23.34-47.863-50.311-44.676-3.994-8.89-10.635-24.668-17.025-44.363-31.408-96.781 40.482-195.961 142.335-195.961zm-135 285c0-8.271 6.729-15 15-15s15 6.729 15 15c0 8.272-6.729 15-15 15s-15-6.729-15-15zm45 45c0-8.271 6.729-15 15-15s15 6.729 15 15c0 8.272-6.729 15-15 15s-15-6.729-15-15zm90 105.539c-11.425-13.275-40-48.809-40-65.539 0-22.055 17.944-40 40-40s40 17.945 40 40c0 16.759-28.239 51.875-40 65.539zm75-90.539c-8.272 0-15-6.728-15-15 0-8.271 6.728-15 15-15 8.271 0 15 6.729 15 15s-6.729 15-15 15zm45-45c-8.272 0-15-6.728-15-15 0-8.271 6.728-15 15-15 8.271 0 15 6.729 15 15s-6.729 15-15 15z"/></g></svg>