<?xml version="1.0" standalone="no"?>
<!DOCTYPE svg PUBLIC "-//W3C//DTD SVG 20010904//EN"
 "http://www.w3.org/TR/2001/REC-SVG-20010904/DTD/svg10.dtd">
<svg version="1.0" xmlns="http://www.w3.org/2000/svg"
 width="1000.000000pt" height="1000.000000pt" viewBox="0 0 1000.000000 1000.000000"
 preserveAspectRatio="xMidYMid meet">

<g transform="translate(0.000000,1000.000000) scale(0.100000,-0.100000)"
fill="#000000" stroke="none">
<path d="M2811 9888 c-14 -41 -10 -44 11 -8 9 16 13 32 8 35 -4 3 -13 -9 -19
-27z"/>
<path d="M2742 9590 c0 -19 2 -27 5 -17 2 9 2 25 0 35 -3 9 -5 1 -5 -18z"/>
<path d="M2727 9453 c-7 -103 -10 -819 -3 -812 4 5 16 909 12 909 -2 0 -6 -44
-9 -97z"/>
<path d="M5306 9541 c-3 -5 -15 -40 -27 -77 -17 -56 -19 -71 -8 -90 8 -16 10
-48 6 -97 -4 -62 -11 -83 -41 -129 -49 -77 -88 -108 -136 -108 -29 0 -43 6
-59 25 -20 26 -61 180 -61 231 0 34 -30 115 -40 109 -11 -7 -22 -125 -13 -138
10 -15 5 -267 -6 -267 -12 0 -25 112 -26 208 0 45 -2 82 -5 82 -9 0 -31 -110
-26 -128 3 -9 -12 -122 -33 -251 l-38 -234 24 -47 c13 -26 28 -73 32 -105 4
-31 13 -60 19 -64 7 -4 12 -29 13 -56 2 -44 25 -123 33 -114 2 2 0 31 -4 64
-13 113 31 166 190 226 79 30 137 16 233 -57 39 -30 76 -54 81 -54 5 0 41 34
79 75 80 87 109 105 169 105 44 0 161 -28 231 -55 46 -19 47 -18 47 1 0 8 4
13 9 9 20 -12 22 17 2 50 -11 19 -16 35 -11 35 5 0 12 -5 16 -11 4 -7 15 21
25 61 13 51 16 77 9 86 -8 8 -7 13 1 16 8 3 6 26 -9 83 -48 186 -74 314 -76
370 -2 33 -10 76 -19 95 l-17 35 5 -62 c2 -35 8 -119 11 -188 8 -145 0 -156
-54 -79 -33 46 -58 140 -67 249 -5 55 -34 145 -47 145 -11 0 -15 -13 -23 -72
-5 -42 -4 -48 12 -48 10 0 14 -3 8 -8 -6 -4 -11 -32 -13 -62 -6 -161 -15 -187
-73 -208 -36 -14 -92 14 -150 74 -38 40 -51 64 -71 130 -16 53 -21 85 -15 95
6 10 -1 35 -25 83 -32 68 -50 87 -62 67z m77 -138 c-7 -2 -19 -2 -25 0 -7 3
-2 5 12 5 14 0 19 -2 13 -5z m92 -264 c11 -17 -1 -21 -15 -4 -8 9 -8 15 -2 15
6 0 14 -5 17 -11z m120 -79 c19 -8 19 -9 -2 -9 -12 -1 -25 4 -28 9 -7 12 2 12
30 0z m-693 -582 c-7 -7 -12 -8 -12 -2 0 14 12 26 19 19 2 -3 -1 -11 -7 -17z"/>
<path d="M2865 9183 c-4 -15 -3 -469 1 -1008 6 -816 9 -975 20 -950 13 29 13
28 13 -30 -1 -43 -3 -53 -9 -35 l-7 25 -8 -28 c-4 -16 -5 -54 -2 -85 10 -90
-14 -231 -30 -184 -3 6 -13 12 -23 12 -13 0 -20 10 -24 38 -9 52 -14 77 -17
77 -2 0 -8 214 -12 455 -2 96 -7 183 -11 193 -9 18 -4 59 9 91 6 14 5 17 -3
12 -7 -4 -13 -6 -13 -4 -1 2 -5 163 -9 358 -5 218 -6 38 -3 -467 l5 -823 -29
-12 c-15 -7 -32 -18 -36 -25 -14 -22 -29 -15 -21 10 7 22 6 22 -14 4 -20 -18
-22 -18 -50 -1 -29 16 -30 16 -53 -5 -12 -11 -28 -21 -33 -22 -6 0 3 -7 19
-14 17 -8 61 -14 98 -15 43 0 66 -4 62 -10 -11 -17 -136 -11 -181 9 -43 20
-66 15 -91 -17 -14 -17 -18 -116 -5 -108 12 7 64 -49 55 -58 -5 -5 10 0 32 10
47 22 285 34 285 15 0 -6 -16 -11 -35 -11 -29 0 -35 -4 -35 -21 0 -11 4 -18 9
-15 5 3 12 -1 15 -10 3 -8 11 -12 16 -9 8 5 7 11 -1 21 -15 18 -3 32 13 16 17
-17 -2 -47 -29 -47 -38 -1 -56 -25 -50 -68 4 -26 -5 -81 -25 -160 l-30 -121
25 -51 c19 -40 37 -59 74 -80 63 -36 85 -63 70 -87 -9 -13 -9 -25 0 -48 6 -16
7 -30 3 -30 -15 0 -22 -39 -10 -60 6 -11 29 -29 51 -41 55 -27 109 -19 158 26
35 33 35 34 22 70 -7 20 -10 39 -7 42 3 4 26 -14 50 -38 68 -69 217 -134 461
-200 60 -17 111 -31 112 -33 2 -2 -3 -75 -12 -162 -8 -87 -26 -294 -40 -459
-37 -430 -71 -814 -105 -1175 -93 -993 -122 -1345 -113 -1409 l8 -66 90 -12
c204 -29 472 -108 683 -202 51 -22 113 -46 137 -52 54 -14 53 -3 23 -205 -36
-248 -33 -983 4 -1061 20 -41 -6 -137 -96 -350 -18 -43 -27 -83 -29 -131 -1
-44 -6 -68 -13 -65 -6 2 -15 -22 -22 -58 -18 -95 -7 -103 175 -124 128 -15
377 -20 407 -9 13 5 16 21 16 76 0 38 -5 78 -10 89 -8 14 -7 31 5 64 8 25 15
64 15 87 0 53 69 368 85 388 7 8 16 29 20 45 4 17 23 98 42 180 l36 150 1 365
c2 400 7 455 40 465 11 3 107 9 211 12 142 4 227 1 335 -11 203 -23 207 -24
214 -49 3 -12 23 -152 45 -312 88 -631 130 -872 155 -891 10 -7 22 -45 31 -95
8 -46 17 -99 21 -116 4 -22 2 -39 -7 -49 -8 -10 -15 -51 -17 -113 -3 -95 -3
-96 28 -133 17 -21 38 -38 47 -38 10 0 13 -6 9 -16 -3 -9 -9 -47 -12 -85 l-7
-69 38 -16 c55 -23 402 -22 553 2 32 5 32 5 32 64 0 68 -7 91 -25 84 -10 -4
-10 4 -2 39 17 76 -2 116 -58 123 -20 2 -60 14 -89 26 l-51 22 45 8 c31 5 52
3 73 -7 40 -20 40 -20 19 22 -48 95 -90 221 -96 291 -4 46 -2 72 4 72 5 0 10
17 10 38 0 20 11 84 25 142 14 58 25 125 25 150 1 103 -43 544 -70 706 -11 66
-20 124 -20 130 0 7 46 13 128 17 199 11 352 56 458 137 22 17 79 44 125 59
81 27 84 30 94 65 6 21 18 42 26 47 26 14 104 29 212 40 56 5 106 14 111 19 5
5 9 28 9 52 1 37 -50 540 -113 1113 -11 99 -44 439 -75 755 -70 724 -98 974
-136 1224 -63 415 -79 467 -194 646 -30 47 -122 218 -204 380 -124 247 -150
305 -155 354 -5 50 -4 57 9 52 8 -3 15 -1 15 4 0 6 -8 10 -17 11 -20 1 11 13
60 23 31 7 36 22 10 29 -14 4 -12 5 5 6 25 1 29 16 7 25 -14 5 -14 9 0 37 18
35 19 34 -15 48 -23 9 -23 10 12 10 43 1 58 16 26 27 -21 6 -20 7 8 19 l29 13
-27 10 c-25 10 -52 29 -84 60 -12 11 -14 11 -14 0 -1 -9 -5 -7 -14 5 -7 9 -18
17 -24 17 -18 0 -26 22 -11 31 11 7 9 9 -6 10 -11 1 -26 3 -32 3 -7 1 -22 9
-33 18 -11 10 -31 20 -44 24 -13 3 -33 15 -45 27 -68 72 -143 123 -191 131
-35 6 -40 9 -30 21 9 11 9 15 1 15 -6 0 -20 9 -32 21 -13 13 -27 18 -40 14
-11 -4 -19 -2 -19 4 0 6 -9 11 -21 11 -12 0 -17 4 -13 11 4 8 0 9 -15 4 -11
-3 -21 -2 -21 3 0 5 -26 17 -58 26 -47 13 -65 14 -91 5 -18 -6 -35 -9 -38 -5
-4 3 -1 6 5 6 7 0 12 5 12 10 0 6 -13 10 -30 10 -20 0 -30 5 -30 15 0 16 -16
18 -101 15 -65 -2 -74 13 -73 116 l2 83 -35 -26 c-90 -69 -260 -114 -355 -95
-81 16 -166 51 -202 82 l-32 28 23 -91 c24 -96 24 -206 -1 -225 -6 -5 -33 -9
-59 -9 -27 0 -52 -5 -55 -11 -4 -6 -20 -14 -35 -17 -16 -4 -31 -14 -34 -21 -4
-10 -10 -11 -23 -4 -13 7 -17 6 -16 -3 2 -24 -50 -24 -58 1 -3 9 -19 24 -35
33 -27 16 -28 16 -24 -2 4 -14 0 -19 -13 -19 -16 0 -16 -2 4 -16 21 -14 33
-52 12 -39 -15 9 -12 -1 11 -48 12 -23 21 -43 20 -44 0 -2 -1 -4 0 -5 0 -2 1
-17 2 -35 2 -26 -1 -30 -15 -22 -9 5 -22 8 -29 7 -14 -4 -47 49 -48 76 -1 14
4 17 24 14 22 -5 25 -3 19 16 -4 11 -8 29 -9 39 -2 21 -25 48 -25 28 0 -7 5
-22 11 -34 11 -21 11 -21 -7 -6 -31 26 -45 32 -42 17 2 -8 -5 -12 -17 -10 -11
2 -28 3 -37 3 -10 0 -20 4 -23 10 -12 18 -26 9 -16 -10 8 -15 7 -20 -5 -25 -9
-4 -23 -1 -30 5 -9 8 -14 8 -14 1 0 -6 5 -14 10 -17 18 -11 11 -33 -10 -28
-14 4 -21 -1 -25 -20 l-7 -25 -46 29 c-48 30 -65 31 -41 2 12 -15 11 -15 -13
1 -16 10 -28 14 -28 8 0 -6 4 -13 10 -17 18 -11 -1 -36 -22 -29 -14 4 -18 2
-14 -5 15 -23 -5 -31 -41 -16 -44 19 -44 19 -36 -2 5 -12 3 -14 -8 -9 -8 4 0
-4 16 -18 22 -19 25 -26 13 -26 -9 0 -18 -5 -20 -11 -3 -9 -10 -9 -27 0 -21
12 -22 11 -13 -5 9 -16 4 -20 -41 -32 -29 -7 -53 -17 -55 -22 -2 -6 -10 -10
-18 -10 -8 0 -17 -13 -20 -30 -4 -19 -15 -32 -33 -39 -14 -5 -20 -10 -13 -10
26 -2 0 -21 -29 -21 -16 0 -29 -4 -29 -10 0 -5 -7 -10 -15 -10 -12 0 -12 -5 3
-34 9 -18 22 -31 28 -29 19 7 64 -56 65 -90 1 -32 5 -75 11 -113 2 -12 18 -39
35 -61 l32 -39 -59 -86 c-32 -47 -113 -159 -181 -249 -68 -89 -145 -191 -171
-226 -27 -35 -49 -63 -51 -63 -2 0 -60 16 -130 35 -181 49 -446 165 -465 202
-6 10 -13 38 -17 63 -11 65 -20 78 -68 90 -23 6 -50 13 -59 16 -21 6 -33 44
-23 73 7 23 35 29 36 9 0 -7 4 -3 10 10 7 18 14 22 29 17 14 -5 20 -2 20 9 0
12 -11 16 -37 17 -21 1 15 6 79 11 108 8 121 7 156 -11 l39 -20 32 33 c29 30
32 38 29 85 -3 44 -7 55 -30 69 -25 15 -29 14 -69 -4 -31 -13 -66 -19 -120
-19 -63 0 -75 -3 -72 -15 2 -9 -4 -24 -15 -33 -25 -22 -56 -12 -97 34 -32 35
-28 33 42 -17 26 -19 53 -12 53 12 0 12 -6 15 -21 11 -15 -4 -18 -2 -10 6 5 7
38 13 73 15 95 4 140 12 176 33 19 11 37 17 42 14 4 -3 6 4 3 15 -6 24 -3 24
-42 4 -28 -14 -37 -14 -57 -4 -20 11 -28 11 -49 0 -17 -9 -28 -10 -37 -3 -7 6
-31 11 -52 11 -43 2 -56 13 -56 51 0 23 -1 23 -25 7 -25 -16 -28 -16 -60 4
-19 12 -37 31 -39 43 -3 12 -7 301 -10 642 -14 1453 -22 1729 -51 1618z m2745
-1477 c0 -49 -165 -95 -235 -67 -13 6 -3 8 30 6 42 -3 60 3 120 36 78 43 85
45 85 25z m45 -55 c-11 -9 -95 -31 -117 -31 -25 1 19 20 57 25 21 2 40 7 43
10 3 3 10 5 16 5 6 0 6 -3 1 -9z m372 -167 c-3 -3 -12 -4 -19 -1 -8 3 -5 6 6
6 11 1 17 -2 13 -5z m-202 -41 c19 -9 35 -20 35 -25 0 -11 -48 -10 -90 2 -37
11 -150 3 -150 -11 0 -4 21 -11 48 -14 26 -4 72 -13 102 -22 30 -8 67 -15 82
-15 20 -1 28 -7 33 -26 9 -36 -8 -49 -48 -34 -18 7 -48 12 -66 12 -18 0 -52 5
-76 11 -25 6 -64 8 -88 5 -40 -6 -43 -8 -42 -39 0 -30 2 -32 45 -39 25 -3 56
-7 70 -7 l25 0 -25 14 c-14 8 -42 14 -62 15 -40 0 -63 19 -26 22 41 2 62 -2
103 -24 22 -11 76 -33 120 -48 72 -24 81 -30 89 -59 5 -17 6 -35 2 -39 -15
-14 -177 -1 -227 19 -66 25 -105 25 -119 -2 -16 -28 1 -45 51 -53 23 -4 59
-16 81 -27 27 -14 50 -19 67 -14 14 3 39 8 54 10 15 2 39 15 52 29 13 14 32
26 42 26 14 0 11 -5 -9 -18 -16 -9 -28 -20 -28 -24 0 -11 28 -10 51 2 28 15
23 3 -6 -16 -19 -13 -28 -14 -39 -5 -11 9 -16 9 -21 1 -4 -7 -17 -9 -29 -6
-25 6 -66 -18 -53 -30 4 -5 11 -4 15 1 9 13 38 16 95 9 l47 -6 0 -45 0 -46
-37 7 c-21 3 -66 9 -101 13 -65 6 -83 28 -24 28 18 0 39 8 49 19 17 18 17 19
-2 11 -41 -15 -55 -17 -55 -7 0 6 -10 8 -22 4 -16 -4 -19 -2 -13 8 6 10 4 12
-11 6 -10 -5 -27 -10 -36 -13 -9 -3 -19 -11 -22 -19 -7 -18 35 -19 52 -2 9 9
12 9 12 0 0 -21 -52 -35 -74 -22 -16 10 -22 9 -35 -8 -23 -29 -54 -35 -87 -17
-44 23 -148 17 -112 -7 8 -5 1 -6 -17 -1 -38 10 -93 10 -125 0 -14 -5 -20 -5
-15 0 6 4 12 20 13 34 3 41 -32 45 -88 10 -54 -34 -126 -47 -135 -24 -4 12
-16 14 -50 11 -34 -4 -45 -2 -45 8 0 9 11 14 31 14 70 0 266 75 298 114 17 21
7 46 -19 46 -11 0 -46 -13 -77 -30 -44 -22 -76 -31 -130 -34 -39 -2 -87 -12
-106 -21 -19 -9 -51 -15 -71 -13 l-37 3 29 46 c26 41 33 45 60 41 23 -3 65 13
174 67 79 39 152 71 164 71 21 0 44 17 44 33 0 9 -75 5 -130 -8 -24 -5 -24 -5
-2 4 33 15 27 21 -10 10 -18 -5 -34 -9 -36 -9 -2 0 -1 -4 2 -8 3 -5 -1 -9 -8
-9 -7 0 -26 -10 -42 -22 -17 -13 -37 -19 -46 -16 -22 9 -11 35 13 35 10 0 19
4 19 10 0 14 88 57 159 76 33 10 58 21 55 26 -6 9 1 10 76 8 30 0 93 6 140 14
47 8 119 17 160 21 42 3 83 10 90 16 21 13 35 11 75 -8z m-625 -38 c0 -9 -75
-55 -90 -55 -8 0 -1 9 16 19 18 11 35 24 38 30 7 11 36 16 36 6z m820 -85 c0
-5 -4 -10 -10 -10 -5 0 -10 5 -10 10 0 6 5 10 10 10 6 0 10 -4 10 -10z m-1460
-31 c0 -5 -7 -6 -15 -3 -8 4 -15 13 -15 21 0 13 3 13 15 3 8 -7 15 -16 15 -21z
m480 4 c-8 -3 -27 -17 -42 -31 -33 -30 -38 -19 -6 15 12 13 31 23 42 22 15 0
16 -2 6 -6z m1030 3 c0 -3 -4 -8 -10 -11 -5 -3 -10 -1 -10 4 0 6 5 11 10 11 6
0 10 -2 10 -4z m-80 -16 c0 -5 -8 -10 -17 -10 -15 0 -16 2 -3 10 19 12 20 12
20 0z m60 -20 c0 -5 -2 -10 -4 -10 -3 0 -8 5 -11 10 -3 6 -1 10 4 10 6 0 11
-4 11 -10z m-1585 -14 c25 -18 30 -49 6 -34 -21 13 -45 48 -33 48 4 0 17 -6
27 -14z m306 -3 c13 -16 12 -17 -3 -4 -17 13 -22 21 -14 21 2 0 10 -8 17 -17z
m1249 -3 c0 -5 -7 -10 -16 -10 -8 0 -12 5 -9 10 3 6 10 10 16 10 5 0 9 -4 9
-10z m-1470 -10 c0 -5 -4 -10 -10 -10 -5 0 -10 5 -10 10 0 6 5 10 10 10 6 0
10 -4 10 -10z m-63 -74 c0 -8 -6 -12 -14 -9 -7 3 -11 9 -8 13 3 5 -6 17 -20
28 -13 11 -21 22 -18 26 9 9 60 -41 60 -58z m188 55 c3 -5 0 -13 -6 -17 -8 -5
-9 -3 -4 6 5 8 3 11 -6 8 -8 -3 -13 -11 -11 -18 2 -7 -3 -17 -10 -21 -10 -7
-8 -9 5 -9 10 0 17 -5 15 -12 -7 -21 -24 -19 -35 4 -7 17 -5 27 11 45 21 25
32 28 41 14z m1355 -20 c0 -5 -9 -7 -20 -4 -11 3 -20 7 -20 9 0 2 9 4 20 4 11
0 20 -4 20 -9z m-1316 -7 c13 -5 14 -9 5 -20 -9 -11 -15 -11 -25 -3 -8 6 -11
15 -8 20 6 11 8 11 28 3z m-364 -106 c5 -38 3 -45 -7 -36 -11 8 -12 7 -7 -8
12 -32 -12 -2 -26 33 -15 39 -7 66 17 61 13 -2 19 -16 23 -50z m-64 17 c8 -13
13 -29 9 -35 -4 -6 -1 -18 7 -27 11 -15 11 -16 -5 -10 -13 5 -17 2 -15 -11 2
-13 -3 -16 -20 -14 -17 1 -25 -4 -29 -18 -7 -25 -29 -26 -42 -2 -14 22 -14 6
-1 -18 9 -16 8 -18 -5 -14 -9 4 -14 9 -11 12 3 2 -9 25 -26 51 -20 29 -24 39
-11 29 11 -10 23 -18 28 -18 5 0 17 -7 27 -17 17 -15 18 -15 18 5 0 11 -4 24
-10 27 -5 3 -10 11 -10 16 0 6 14 0 31 -12 l32 -22 -5 51 c-6 59 10 70 38 27z
m1679 15 c-3 -5 -14 -10 -23 -9 -14 0 -13 2 3 9 27 11 27 11 20 0z m-1219 -29
c-3 -5 -15 -11 -26 -14 -17 -4 -19 -3 -9 9 12 15 44 20 35 5z m-1849 -93 c-3
-8 -6 -5 -6 6 -1 11 2 17 5 13 3 -3 4 -12 1 -19z m1234 -9 c11 -11 19 -23 17
-25 -3 -2 -15 7 -28 21 -28 30 -19 34 11 4z m179 -10 c0 -6 -4 -7 -10 -4 -5 3
-10 11 -10 16 0 6 5 7 10 4 6 -3 10 -11 10 -16z m580 -37 c30 -12 68 -24 84
-28 l30 -7 -25 -9 c-48 -18 -124 -28 -170 -22 l-46 6 7 34 c11 46 27 65 48 55
10 -5 42 -18 72 -29z m110 -2 c0 -5 -2 -10 -4 -10 -3 0 -8 5 -11 10 -3 6 -1
10 4 10 6 0 11 -4 11 -10z m-2091 -72 c0 -10 -3 -18 -9 -18 -5 0 -9 21 -9 48
1 42 2 44 9 17 4 -16 8 -38 9 -47z m2551 56 c0 -11 6 -15 18 -11 32 9 37 9 77
8 32 -1 57 -13 123 -60 45 -32 98 -62 117 -65 20 -4 51 -16 70 -28 23 -13 47
-19 69 -16 33 4 35 2 46 -40 6 -23 8 -47 5 -53 -4 -5 -1 -9 5 -9 6 0 9 -4 6
-9 -11 -17 -82 -3 -136 28 -58 32 -86 40 -74 19 5 -7 -3 -5 -16 5 -14 9 -42
29 -63 42 -21 14 -45 33 -55 43 -9 9 -32 28 -50 41 -19 13 -38 35 -44 50 -6
14 -12 21 -15 14 -2 -7 -11 -9 -19 -6 -31 12 -8 -16 114 -134 141 -138 196
-183 223 -183 11 0 48 -14 84 -31 70 -33 104 -37 147 -20 24 9 29 8 38 -9 12
-23 0 -54 -33 -82 -25 -22 -85 -23 -115 -3 -12 9 -44 19 -71 22 -45 5 -50 3
-66 -21 -16 -24 -16 -28 -1 -51 18 -27 107 -76 169 -93 24 -7 49 -7 71 -1 39
11 54 39 65 121 l7 53 8 -48 c5 -26 5 -78 1 -115 -5 -37 -7 -76 -6 -88 2 -23
-29 -41 -69 -39 -14 1 -45 3 -70 5 -88 6 -98 3 -105 -31 -6 -27 -2 -36 31 -70
66 -68 141 -70 184 -6 20 30 21 30 17 7 -10 -47 -32 -97 -43 -93 -6 2 -19 -6
-29 -17 -24 -27 -64 -25 -116 5 -24 14 -47 25 -51 25 -16 0 -7 -32 10 -37 27
-7 50 -45 41 -68 l-8 -20 0 20 c-1 17 -4 15 -21 -10 -11 -16 -18 -36 -15 -42
3 -8 -5 -13 -19 -13 -21 0 -25 6 -31 41 -10 56 -57 188 -82 230 -11 19 -22 40
-25 48 -5 16 -78 41 -120 41 -30 0 -46 -23 -68 -97 -15 -48 -17 -50 -37 -25
-10 12 -16 14 -19 4 -3 -6 -9 -10 -12 -8 -15 9 -6 -53 11 -71 9 -11 17 -27 17
-36 0 -17 5 -19 45 -21 30 -1 24 -29 -8 -40 -22 -8 -30 -7 -37 4 -8 12 -10 12
-16 -3 -3 -9 -12 -17 -20 -17 -18 0 -18 -25 1 -44 8 -8 15 -24 15 -36 0 -18 4
-21 23 -16 12 4 35 9 51 13 45 10 28 -18 -30 -47 -27 -14 -52 -29 -56 -35 -11
-15 2 -108 17 -121 8 -6 10 -16 5 -23 -6 -11 -8 -11 -12 -1 -3 10 -10 8 -26
-6 l-23 -19 28 -5 c15 -3 25 -9 22 -15 -2 -6 -71 -8 -179 -6 -139 2 -178 0
-187 -11 -7 -8 -14 -92 -18 -210 -7 -178 -6 -198 9 -204 17 -7 22 -24 7 -24
-5 0 -17 7 -26 17 -15 14 -16 37 -10 207 4 106 12 202 19 216 8 17 24 27 56
35 28 7 40 14 32 19 -6 4 -16 4 -22 1 -13 -8 -70 25 -70 40 0 23 14 25 36 4
25 -24 44 -18 44 12 0 11 5 29 11 40 15 29 3 53 -37 72 -19 10 -32 22 -29 27
4 6 1 9 -6 8 -6 -2 -14 3 -16 11 -4 10 0 11 18 5 43 -14 64 -10 62 9 0 11 8
28 18 38 20 20 20 20 -3 44 -13 13 -24 20 -26 15 -5 -14 -36 -12 -50 2 -18 18
-14 31 8 25 15 -4 27 6 51 41 28 42 30 50 20 77 -6 17 -11 43 -11 58 0 25 2
26 27 16 15 -5 50 -8 77 -5 28 3 80 9 116 12 36 4 71 11 78 17 9 7 12 3 12
-14 0 -19 2 -21 10 -9 5 8 10 24 10 34 0 26 38 66 62 66 10 0 21 6 24 13 7 19
64 20 71 1 3 -8 10 -14 16 -14 6 0 -2 14 -18 30 -16 17 -35 28 -42 26 -7 -3
-13 1 -13 8 0 7 -7 19 -15 26 -24 20 -18 33 11 26 22 -6 25 -4 20 9 -3 9 -6
20 -6 25 0 13 -54 44 -74 42 -32 -2 -58 17 -54 41 3 19 9 22 45 20 l43 -2 -20
39 c-11 22 -20 47 -20 56 0 16 -38 69 -97 133 -35 38 -33 39 -52 -41 -15 -65
-14 -77 7 -51 21 28 82 49 82 28 0 -8 -8 -11 -22 -8 -20 4 -21 3 -5 -7 11 -7
17 -24 17 -49 l0 -38 -72 -8 c-40 -4 -92 -8 -116 -8 l-43 -2 -3 58 c-2 36 1
57 8 57 30 -1 55 -14 60 -33 3 -12 7 -19 9 -17 7 8 -15 140 -23 140 -11 0 -91
-90 -103 -117 -5 -13 -14 -23 -19 -23 -4 0 -8 -8 -8 -17 0 -10 -11 -40 -25
-68 -32 -65 -32 -80 -2 -61 12 8 32 17 45 21 18 5 22 3 22 -17 0 -30 -18 -48
-47 -48 -13 0 -26 -7 -29 -15 -3 -8 -15 -17 -25 -20 -21 -7 -55 -52 -46 -61 3
-3 15 0 27 6 12 6 24 9 27 7 6 -7 -27 -57 -39 -57 -5 0 -21 -11 -36 -25 -15
-14 -32 -25 -39 -25 -7 0 -13 -5 -13 -11 0 -13 39 -2 61 17 18 16 49 19 49 4
0 -5 8 -10 18 -10 30 0 52 -33 58 -86 5 -38 3 -53 -9 -62 -13 -11 -16 -7 -22
26 -3 21 -15 53 -26 71 -17 29 -24 32 -47 26 -15 -4 -43 -8 -63 -8 l-36 -1
-57 -119 c-31 -66 -56 -123 -56 -128 0 -5 -5 -9 -11 -9 -6 0 -8 7 -5 16 12 32
-24 -7 -38 -41 -7 -17 -28 -43 -46 -58 -19 -17 -30 -33 -26 -42 3 -8 1 -15 -4
-15 -6 0 -10 9 -10 21 0 34 -17 12 -24 -30 -7 -47 0 -71 23 -71 14 0 14 -2 1
-10 -20 -13 -50 16 -50 49 0 15 8 43 18 63 16 31 17 40 5 79 -7 24 -13 61 -13
82 0 21 -7 54 -15 74 -21 50 -19 60 7 27 35 -46 51 -55 83 -49 38 6 105 75
105 109 0 31 -10 57 -19 51 -17 -10 -164 -13 -180 -3 -14 8 -15 22 -9 96 3 48
7 95 7 105 2 38 21 14 21 -27 0 -50 15 -71 60 -81 40 -9 63 -1 138 48 68 44
89 75 71 109 -9 17 -17 19 -47 13 -21 -4 -51 -15 -68 -26 -22 -13 -44 -18 -73
-15 -27 3 -39 1 -34 -6 3 -7 1 -8 -6 -4 -6 4 -9 12 -5 17 3 5 1 16 -5 23 -13
15 -51 122 -51 143 0 25 19 13 41 -26 12 -22 35 -45 51 -52 27 -11 37 -8 126
37 78 40 104 59 140 104 24 30 90 103 147 161 95 98 102 107 79 112 -13 2 -24
0 -24 -6 0 -10 -30 -39 -108 -106 -23 -20 -56 -49 -73 -65 -17 -17 -39 -30
-48 -31 -18 -1 -80 -41 -92 -58 -4 -5 -22 -11 -40 -13 -19 -2 -41 -7 -50 -9
-28 -9 -67 48 -74 108 -4 29 -5 66 -3 82 l3 30 49 -48 c37 -38 56 -49 80 -49
41 0 155 60 239 126 56 44 77 54 120 59 29 4 62 4 73 1 12 -3 33 0 45 7 13 7
39 12 58 10 29 -2 33 1 28 19 -3 11 -1 20 4 20 5 0 9 -7 9 -16z m30 6 c0 -5
-5 -10 -11 -10 -5 0 -7 5 -4 10 3 6 8 10 11 10 2 0 4 -4 4 -10z m-390 -10 c0
-5 -2 -10 -4 -10 -3 0 -8 5 -11 10 -3 6 -1 10 4 10 6 0 11 -4 11 -10z m210 -6
c0 -8 -4 -12 -10 -9 -5 3 -10 10 -10 16 0 5 5 9 10 9 6 0 10 -7 10 -16z
m-1130 -25 c0 -6 -4 -7 -10 -4 -5 3 -10 11 -10 16 0 6 5 7 10 4 6 -3 10 -11
10 -16z m-945 -79 c3 -5 1 -10 -4 -10 -6 0 -11 5 -11 10 0 6 2 10 4 10 3 0 8
-4 11 -10z m-85 -10 c0 -5 -4 -10 -10 -10 -5 0 -10 5 -10 10 0 6 5 10 10 10 6
0 10 -4 10 -10z m-219 -10 c29 -16 25 -42 -4 -31 -13 5 -35 7 -50 4 -31 -6
-34 -1 -11 21 18 19 38 20 65 6z m1273 -29 c-6 -6 -34 20 -34 32 0 6 8 2 19
-9 10 -10 17 -21 15 -23z m-1446 -18 c2 -8 -5 -13 -18 -13 -13 0 -20 -5 -18
-12 8 -24 40 -20 69 8 16 15 31 25 34 22 11 -11 -67 -69 -88 -66 -23 3 -34 36
-23 64 7 18 37 15 44 -3z m204 -24 c20 -21 27 -36 23 -47 -4 -9 -8 -29 -10
-44 -1 -15 -8 -34 -15 -43 -17 -21 3 -19 23 3 8 9 17 37 20 62 l4 45 1 -48 c2
-42 -2 -53 -27 -78 -16 -16 -39 -29 -50 -29 -16 0 -21 -6 -21 -25 0 -14 5 -25
10 -25 6 0 10 7 10 15 0 8 5 15 10 15 6 0 10 -7 10 -16 0 -17 -37 -74 -48 -74
-12 0 -45 67 -40 81 2 7 10 -2 17 -19 15 -36 36 -44 27 -9 -3 12 -6 27 -6 34
0 7 -20 21 -44 32 -45 20 -67 46 -65 78 1 12 3 10 8 -7 13 -47 116 -92 136
-60 3 6 0 10 -7 10 -9 0 -9 3 2 10 11 7 5 10 -23 10 -23 0 -36 -4 -32 -10 4
-6 -5 -5 -19 2 -34 15 -33 43 1 73 27 23 27 24 9 43 -15 18 -16 23 -4 36 22
26 68 19 100 -15z m273 -29 c38 -37 77 -47 95 -25 11 13 11 19 -3 32 -14 14
-18 14 -33 2 -14 -12 -16 -11 -13 6 6 27 47 26 65 -1 13 -18 12 -24 -7 -47
-27 -35 -50 -34 -92 3 -38 33 -47 36 -47 17 0 -44 -83 -65 -126 -32 -17 13
-16 14 14 4 40 -14 78 -5 92 21 8 15 6 21 -10 30 -26 14 -40 5 -40 -23 0 -17
-2 -19 -9 -8 -6 9 -5 24 2 38 9 21 15 24 46 18 20 -4 50 -19 66 -35z m-716 17
c15 -19 3 -28 -19 -15 -14 9 -22 9 -34 -1 -17 -14 -19 -12 -10 13 7 19 47 21
63 3z m158 -22 c1 -20 0 -23 -4 -7 -3 15 -12 22 -28 22 -58 0 -28 -50 36 -60
43 -6 43 -7 15 -15 -40 -11 -79 5 -90 37 -12 35 7 60 43 56 21 -2 26 -9 28
-33z m-120 -31 c-35 -30 -82 -32 -97 -4 -11 20 3 30 15 10 10 -16 51 -11 76 9
34 28 39 14 6 -15z m240 4 c-3 -8 -6 -5 -6 6 -1 11 2 17 5 13 3 -3 4 -12 1
-19z m2709 -225 c-4 -16 -7 -35 -7 -43 -1 -61 2 -60 -178 -76 l-74 -7 7 47 c4
28 3 46 -2 46 -6 0 -8 8 -5 19 3 12 14 19 29 19 31 0 38 -12 19 -32 -9 -9 -11
-17 -5 -21 5 -3 10 -1 10 4 0 6 7 11 15 11 8 0 23 9 32 20 18 21 67 27 78 10
6 -10 35 -3 33 8 -2 18 4 22 28 22 24 0 26 -3 20 -27z m-24 -172 c-7 -4 -7
-22 -2 -51 5 -25 5 -48 2 -51 -7 -7 -118 -20 -192 -22 l-45 -2 3 35 c2 19 9
41 15 49 9 11 9 15 -1 18 -30 11 2 19 49 13 37 -5 69 -2 108 10 51 16 87 16
63 1z m99 5 c-11 -14 -61 -19 -61 -8 0 15 11 21 41 20 20 -1 26 -4 20 -12z
m-361 -20 c0 -10 -9 -13 -27 -11 -40 5 -40 5 -18 15 30 13 45 12 45 -4z m941
-122 c-9 -28 -9 -29 -10 -3 -1 14 2 29 6 32 11 12 13 2 4 -29z m-1494 -36 c-3
-7 -5 -2 -5 12 0 14 2 19 5 13 2 -7 2 -19 0 -25z m-1684 -24 c13 -13 -14 -45
-32 -39 -10 3 -29 1 -43 -4 -14 -5 -31 -6 -39 -1 -17 11 -14 14 41 32 53 18
65 20 73 12z m-163 -24 c0 -5 -4 -10 -10 -10 -5 0 -10 5 -10 10 0 6 5 10 10
10 6 0 10 -4 10 -10z m155 -70 c-8 -13 -105 -13 -125 0 -10 7 7 10 58 10 46 0
71 -4 67 -10z m3129 -59 c-10 -17 -22 -31 -26 -31 -4 0 2 16 14 35 11 20 23
34 25 31 3 -2 -3 -18 -13 -35z m325 -34 c34 -32 61 -61 61 -64 0 -4 7 -15 17
-25 13 -15 14 -23 4 -46 -10 -25 -10 -26 4 -8 8 11 15 26 15 33 0 15 16 18 24
4 10 -16 135 -70 200 -87 104 -27 247 -10 347 41 15 8 30 15 33 15 16 0 42
-188 51 -356 2 -43 6 -86 8 -94 11 -32 17 -205 7 -190 -7 11 -10 6 -10 -20 0
-27 3 -32 11 -20 14 20 4 -355 -10 -393 -6 -15 -8 -33 -5 -41 13 -35 -45 -386
-82 -496 -9 -25 -17 -56 -19 -70 -8 -55 -162 -427 -172 -416 -3 2 5 23 17 46
16 32 21 56 18 105 -2 42 3 74 14 96 21 45 60 159 63 184 1 11 7 33 13 49 7
15 13 40 13 55 1 14 6 36 12 48 6 13 7 26 2 30 -4 5 -10 3 -12 -4 -2 -7 -11
-9 -19 -6 -14 5 -19 -8 -7 -21 14 -14 13 -54 -2 -82 -8 -16 -15 -23 -15 -16 0
6 -6 12 -14 12 -8 0 -17 7 -20 16 -5 13 -1 15 19 10 22 -6 25 -3 25 19 0 14
-4 25 -10 25 -16 0 -48 -40 -53 -68 -6 -31 6 -71 17 -54 12 20 36 13 36 -9 0
-17 -4 -20 -24 -15 -23 6 -24 5 -15 -32 5 -20 9 -43 9 -50 0 -18 -25 -9 -26 9
0 8 -3 31 -8 52 -6 34 -9 37 -23 25 -15 -12 -15 -11 -1 12 9 14 19 46 22 72 5
34 14 53 33 68 19 15 22 20 9 20 -12 0 -4 12 24 38 22 22 40 47 39 58 0 19 0
19 -12 0 -7 -11 -28 -35 -48 -55 -37 -37 -53 -71 -64 -132 -3 -21 -13 -43 -22
-50 -14 -12 -16 -12 -8 1 5 8 12 33 15 56 6 39 5 42 -16 40 -12 0 -20 -5 -17
-9 3 -4 2 -15 -1 -23 -5 -12 -9 -12 -27 -2 -17 10 -23 10 -26 1 -8 -21 -29
-14 -30 9 -1 14 11 38 30 58 l32 35 -36 -33 c-20 -18 -42 -45 -50 -60 -7 -15
-25 -40 -40 -57 -14 -16 -27 -37 -27 -45 -2 -24 -38 -149 -45 -156 -11 -12 -8
-35 14 -111 22 -73 40 -93 64 -70 45 42 56 47 78 37 19 -10 19 -9 -3 9 -21 18
-23 22 -10 31 11 7 12 10 2 10 -9 0 -11 7 -7 21 5 13 3 19 -3 15 -17 -10 -37
25 -38 68 -1 46 -16 59 -26 24 -5 -21 -6 -21 -8 -3 -5 49 14 127 36 150 24 23
27 12 10 -30 -19 -44 -19 -45 -7 -45 5 0 12 13 16 29 10 45 32 28 39 -30 4
-27 12 -49 18 -49 7 0 8 13 4 38 -3 20 -6 53 -6 72 0 26 -3 31 -10 20 -5 -8
-12 -11 -16 -7 -5 4 3 18 15 30 13 12 20 16 16 8 -6 -11 -4 -13 10 -8 14 6 16
3 12 -15 -18 -79 -17 -84 3 -116 20 -32 20 -32 45 -16 37 24 40 11 5 -26 -16
-18 -30 -38 -30 -46 0 -8 -4 -14 -10 -14 -5 0 -10 10 -10 21 0 17 -3 19 -13
11 -19 -16 -12 -73 10 -90 10 -7 28 -11 40 -9 12 2 20 1 18 -4 -3 -4 1 -9 7
-12 10 -3 10 -9 1 -25 -10 -16 -10 -22 0 -26 9 -5 9 -7 0 -12 -7 -3 -13 -12
-13 -20 0 -8 -6 -17 -14 -20 -8 -3 -12 -13 -9 -25 4 -15 -2 -22 -26 -30 -29
-10 -43 -29 -21 -29 6 0 10 5 10 11 0 5 5 7 11 3 14 -8 -1 -24 -27 -29 -11 -1
-18 -7 -17 -13 2 -7 -8 -7 -29 -1 -24 7 -29 6 -20 -3 20 -20 13 -36 -22 -53
-18 -9 -56 -40 -84 -70 -42 -45 -48 -56 -36 -66 8 -6 14 -16 14 -21 0 -5 -7
-2 -16 6 -18 19 -24 19 -60 6 -19 -8 -30 -8 -38 0 -5 5 -26 10 -46 10 -43 0
-140 -27 -140 -39 0 -5 -7 -11 -15 -15 -12 -4 -14 0 -9 21 5 19 3 24 -7 21 -8
-3 -15 -10 -15 -16 -3 -23 -4 -24 -18 -13 -10 8 -16 9 -21 1 -10 -17 -25 -11
-18 8 6 15 5 15 -10 3 -12 -9 -17 -10 -17 -2 0 7 -4 9 -10 6 -5 -3 -19 -1 -30
5 -18 10 -19 14 -8 27 11 14 10 15 -10 9 -22 -7 -27 0 -23 32 1 6 -3 12 -9 12
-5 0 -10 7 -10 15 0 8 -6 15 -12 16 -7 0 2 5 19 10 18 5 40 20 48 33 19 29 55
24 56 -8 0 -11 3 -15 6 -8 2 6 9 10 14 6 5 -3 9 0 9 6 0 7 15 10 41 9 25 -2
43 2 48 9 10 17 4 144 -10 178 -7 19 -7 29 1 34 15 9 -27 46 -84 70 -32 15
-45 25 -38 32 6 6 24 3 50 -11 37 -19 42 -19 50 -5 15 26 35 6 28 -27 -3 -15
-1 -31 5 -35 6 -3 8 -12 5 -19 -2 -7 1 -21 8 -31 11 -15 23 -144 26 -271 0
-28 20 -11 20 17 0 17 5 30 10 30 6 0 10 -6 10 -12 0 -9 22 -13 79 -13 77 0
79 1 96 30 l17 30 -26 -24 c-22 -20 -31 -23 -71 -17 -25 4 -43 11 -40 16 3 4
0 10 -7 12 -18 6 6 58 27 58 8 0 15 5 15 10 0 6 5 10 11 10 11 0 39 24 39 34
0 3 -7 6 -15 6 -8 0 -15 5 -15 12 0 6 -7 4 -18 -5 -19 -17 -47 -24 -38 -9 2 4
-4 8 -15 8 -12 0 -18 -5 -15 -13 3 -7 1 -13 -4 -13 -13 0 -13 23 1 37 7 7 6
21 -5 47 -8 20 -13 43 -10 51 4 8 1 15 -5 15 -6 0 -11 9 -11 20 0 11 7 20 15
20 19 0 19 4 -1 41 -18 35 -41 123 -89 338 -19 85 -40 160 -46 167 -6 7 -8 18
-5 23 4 5 1 13 -5 17 -14 8 -14 9 34 -216 20 -91 41 -190 48 -220 6 -30 15
-68 20 -84 8 -27 7 -28 -19 -23 -114 21 -152 26 -184 24 -21 -2 -38 0 -38 4 0
10 -28 19 -79 25 -38 4 -44 3 -33 -8 7 -7 28 -11 47 -9 24 2 37 -2 41 -13 8
-20 -24 -53 -55 -58 -28 -4 -41 -28 -15 -28 10 0 26 -7 36 -17 11 -9 18 -11
18 -5 0 7 5 12 11 12 5 0 7 -4 4 -10 -3 -5 1 -10 10 -10 8 0 20 -10 25 -22 5
-15 9 -17 10 -8 1 8 5 4 9 -10 5 -14 4 -32 0 -41 -6 -12 -4 -16 9 -15 13 1 18
-10 23 -49 8 -61 -4 -78 -25 -36 -9 17 -26 36 -39 42 l-22 12 23 -25 c12 -13
21 -33 21 -44 -1 -17 -2 -17 -6 -1 -5 21 -42 37 -83 37 -35 0 -50 19 -21 27
20 5 26 19 23 56 -2 24 13 21 36 -8 11 -13 22 -22 25 -19 9 10 -65 105 -78
101 -6 -3 -30 12 -53 33 -40 37 -92 65 -78 41 4 -6 14 -11 22 -11 13 0 19 -13
15 -34 -1 -5 10 -22 25 -37 15 -16 23 -29 16 -29 -6 0 -13 4 -16 9 -15 24
-117 81 -145 81 -54 0 -81 19 -92 67 -6 24 -15 43 -19 43 -15 0 -21 -71 -9
-104 13 -36 50 -67 57 -47 5 16 29 14 35 -3 4 -10 1 -13 -9 -9 -8 3 -14 -1
-14 -8 0 -8 -4 -20 -9 -28 -8 -12 -12 -12 -25 -2 -9 8 -16 9 -16 3 0 -6 54
-62 120 -125 66 -62 120 -119 120 -125 0 -7 6 -12 14 -12 8 0 24 -12 37 -26
13 -14 32 -33 42 -42 9 -9 17 -23 17 -32 0 -13 -2 -13 -11 0 -9 13 -10 13 -6
0 3 -10 14 -14 31 -12 14 1 26 -2 26 -8 0 -6 5 -8 10 -5 6 4 24 -5 42 -20 17
-14 44 -29 61 -32 29 -6 30 -7 8 -15 -23 -8 -81 16 -81 34 0 5 -11 6 -25 2
-15 -4 -25 -2 -25 5 0 6 -7 11 -16 11 -9 0 -33 15 -55 33 -21 19 -59 44 -84
57 -24 13 -51 33 -60 46 -8 12 -25 24 -37 26 -13 2 -22 9 -20 16 1 8 -1 11 -6
8 -10 -6 -84 70 -138 142 -21 29 -49 59 -61 68 -13 8 -23 19 -23 24 0 17 -84
140 -96 140 -7 0 -17 14 -23 32 -6 17 -22 46 -36 64 -14 18 -25 37 -25 42 0 5
-11 21 -25 36 -14 15 -25 38 -25 51 0 13 -6 28 -13 32 -16 10 -77 121 -77 141
0 8 -11 27 -23 42 -20 24 -69 132 -122 270 -108 279 -122 340 -81 340 33 0
129 44 203 92 103 67 176 145 243 258 30 51 60 95 67 97 9 4 10 10 2 25 -6 11
-7 18 -2 16 96 -47 134 -47 254 2 39 17 77 30 84 30 7 0 45 14 85 30 42 18 79
28 91 25 12 -4 19 -2 19 8 0 8 50 33 133 65 72 29 157 65 187 80 51 25 55 30
58 66 3 40 -19 86 -40 86 -6 0 -21 -9 -33 -20 -20 -19 -21 -19 -53 11 l-33 31
-72 -26 c-39 -14 -75 -22 -79 -18 -4 4 -10 21 -14 38 -6 30 -5 30 83 66 48 20
93 36 100 35 6 -1 39 -28 72 -60z m-3510 37 c2 -2 -14 -4 -37 -4 -23 0 -42 5
-42 10 0 10 67 4 79 -6z m71 6 c0 -5 -12 -10 -27 -9 -25 0 -26 1 -8 9 27 12
35 12 35 0z m20 -57 c0 -20 -7 -31 -25 -40 -28 -13 -31 -7 -10 20 7 11 11 25
8 33 -3 8 1 14 11 14 11 0 16 -9 16 -27z m-127 -4 c9 -6 17 -16 17 -24 0 -28
-75 -14 -83 15 -3 13 2 18 22 18 14 0 34 -4 44 -9z m3275 -19 c1 -26 -2 -30
-19 -25 -18 6 -24 -2 -20 -33 3 -20 -47 -38 -69 -24 -15 9 -21 7 -34 -13 -21
-31 -27 -31 -65 1 -28 24 -34 23 -33 -6 0 -3 3 -15 6 -26 5 -18 1 -24 -25 -33
-44 -15 -47 -14 -41 15 4 23 2 25 -24 22 -27 -3 -29 -5 -26 -45 2 -30 -2 -43
-10 -43 -7 0 -40 -11 -73 -24 -56 -23 -61 -28 -74 -70 -9 -29 -20 -46 -30 -46
-14 0 -14 -2 -1 -10 12 -7 12 -12 2 -22 -9 -9 -12 -9 -12 0 0 7 -11 12 -25 12
-29 0 -30 2 -10 76 16 63 25 79 25 46 0 -13 6 -22 15 -22 8 0 15 -8 15 -17 0
-15 2 -16 10 -3 5 9 5 17 -1 20 -5 4 -1 15 11 25 27 25 9 48 -32 40 -16 -4
-28 -2 -28 3 0 5 50 27 110 47 61 21 110 42 110 46 0 4 24 15 53 25 28 9 61
23 72 30 42 27 102 43 115 31 9 -8 11 -8 7 -1 -4 7 14 20 46 32 28 11 52 21
53 21 1 1 1 -13 2 -29z m-1341 -86 c-3 -3 -12 -4 -19 -1 -8 3 -5 6 6 6 11 1
17 -2 13 -5z m1023 -59 c0 -8 -4 -15 -10 -15 -5 0 -10 7 -10 15 0 8 5 15 10
15 6 0 10 -7 10 -15z m-265 -46 c4 -6 4 -27 0 -47 -6 -31 -9 -34 -15 -17 -19
45 -6 98 15 64z m70 -39 c-3 -5 -10 -10 -16 -10 -5 0 -9 5 -9 10 0 6 7 10 16
10 8 0 12 -4 9 -10z m-201 -126 c91 -13 44 -19 -119 -16 l-165 3 0 -48 c0 -26
-3 -110 -7 -185 l-6 -138 37 0 c22 0 35 -4 31 -10 -10 -16 -72 -12 -79 5 -3 8
-3 95 0 192 5 148 8 180 22 191 17 13 203 17 286 6z m-484 -223 c0 -18 -18
-21 -30 -6 -10 13 -9 15 9 15 11 0 21 -4 21 -9z m-160 -21 c0 -5 -4 -10 -9
-10 -6 0 -13 5 -16 10 -3 6 1 10 9 10 9 0 16 -4 16 -10z m-130 -16 c0 -8 -4
-12 -10 -9 -5 3 -10 10 -10 16 0 5 5 9 10 9 6 0 10 -7 10 -16z m2262 -1329 c6
-29 -12 -48 -36 -39 -11 4 -14 13 -9 33 11 46 37 50 45 6z m-61 -37 c11 -21
11 -22 -4 -9 -10 7 -17 17 -17 22 0 15 9 10 21 -13z m-483 -30 c3 -53 16 -126
23 -140 7 -13 6 -18 -4 -18 -16 0 -34 55 -40 123 -3 32 -1 47 8 47 6 0 12 -6
13 -12z m-623 -8 c3 -5 1 -10 -4 -10 -6 0 -11 5 -11 10 0 6 2 10 4 10 3 0 8
-4 11 -10z m407 -17 c36 -39 61 -80 56 -94 -2 -6 -15 5 -28 24 -14 20 -41 46
-61 59 -20 13 -35 26 -32 31 9 15 40 6 65 -20z m-275 -58 c39 -27 68 -90 74
-160 0 -5 6 -16 12 -23 8 -10 15 -7 34 15 l24 28 -17 -28 c-10 -17 -15 -39
-11 -60 5 -32 5 -32 -6 -5 -6 16 -17 27 -26 25 -9 -1 -16 5 -16 15 0 9 -4 20
-8 24 -4 4 -7 20 -7 36 0 33 -12 36 -37 9 -13 -14 -23 -17 -33 -11 -20 13 6
42 31 35 23 -8 23 -7 4 38 -18 43 -42 59 -67 46 -19 -10 -25 -49 -8 -49 6 0
10 7 10 15 0 17 16 20 25 5 8 -13 -13 -40 -31 -40 -25 0 -44 30 -37 58 10 44
49 56 90 27z m53 -3 c0 -10 8 -29 17 -42 12 -17 12 -21 3 -13 -8 6 -23 25 -33
42 -16 27 -16 31 -3 31 9 0 16 -8 16 -18z m466 -172 c5 -34 3 -50 -5 -50 -6 0
-11 11 -11 24 0 13 -2 45 -5 72 -7 66 12 25 21 -46z m462 3 c-41 -76 -50 -85
-42 -43 5 28 57 100 71 100 2 0 -11 -26 -29 -57z m-753 -14 c0 -13 5 -27 10
-31 6 -4 -4 -8 -20 -8 -36 0 -55 16 -55 45 0 19 1 19 19 -4 16 -21 19 -21 24
-6 4 9 4 21 1 27 -4 6 -1 9 7 6 8 -3 14 -16 14 -29z m549 -134 c-4 -8 -11 -15
-16 -15 -6 0 -5 6 2 15 7 8 14 15 16 15 2 0 1 -7 -2 -15z m-54 -79 c0 -3 -4
-8 -10 -11 -5 -3 -10 -1 -10 4 0 6 5 11 10 11 6 0 10 -2 10 -4z m85 -6 c-3 -5
-11 -10 -16 -10 -6 0 -7 5 -4 10 3 6 11 10 16 10 6 0 7 -4 4 -10z m-195 -20
c0 -5 -4 -10 -9 -10 -6 0 -13 5 -16 10 -3 6 1 10 9 10 9 0 16 -4 16 -10z m45
-10 c8 -13 -5 -13 -25 0 -13 8 -13 10 2 10 9 0 20 -4 23 -10z m102 -38 c-13
-15 -30 -37 -36 -50 -10 -18 -15 -21 -26 -12 -8 7 -19 9 -24 6 -5 -4 -9 3 -8
14 2 30 39 60 75 63 20 1 32 8 33 17 0 11 2 12 6 2 3 -8 -6 -26 -20 -40z
m-212 -48 c-38 -20 -45 -17 -15 5 13 11 28 17 33 14 5 -3 -4 -11 -18 -19z
m-1720 -2412 c-7 -8 -35 7 -35 18 0 6 7 6 20 -2 10 -7 17 -14 15 -16z m-305 4
c0 -2 -7 -7 -16 -10 -8 -3 -12 -2 -9 4 6 10 25 14 25 6z m2010 -53 c0 -19 -42
-13 -48 7 -5 13 -3 13 12 1 22 -18 33 -6 15 16 -13 16 -12 17 4 4 9 -7 17 -20
17 -28z m-328 -5 c-7 -7 -12 -8 -12 -2 0 14 12 26 19 19 2 -3 -1 -11 -7 -17z
m-1377 -36 c-7 -8 -35 7 -35 18 0 6 7 6 20 -2 10 -7 17 -14 15 -16z m-360 8
c-3 -5 -12 -10 -18 -10 -7 0 -6 4 3 10 19 12 23 12 15 0z m2074 -39 c16 -28
-9 -46 -35 -25 -18 15 -18 15 4 9 24 -7 29 4 10 23 -9 9 -9 12 0 12 6 0 16 -9
21 -19z m-309 -15 c0 -2 -7 -9 -15 -16 -13 -11 -14 -10 -9 4 5 14 24 23 24 12z
m-1845 -226 c-74 -24 -76 -24 -46 0 15 13 37 20 65 19 l41 0 -60 -19z"/>
<path d="M5286 7255 c-11 -8 -28 -15 -37 -15 -28 0 -76 -22 -61 -27 21 -8 99
17 118 38 20 22 7 25 -20 4z"/>
<path d="M5556 7001 c-17 -19 -17 -20 11 -24 l28 -4 -28 -2 c-21 -1 -28 -5
-25 -18 5 -23 37 -18 60 8 9 10 21 19 26 19 5 0 12 6 15 14 4 9 -4 16 -25 20
-42 8 -43 8 -62 -13z"/>
<path d="M5500 6748 c0 -8 9 -23 21 -34 11 -10 44 -52 73 -94 29 -41 60 -81
69 -89 15 -12 17 -11 17 5 0 30 -102 163 -163 213 -15 11 -17 11 -17 -1z"/>
<path d="M5224 6698 c-83 -87 -147 -198 -114 -198 6 0 10 4 10 8 0 8 14 28
113 160 26 34 47 64 47 67 0 14 -20 1 -56 -37z"/>
<path d="M4870 6660 c0 -5 5 -10 10 -10 6 0 10 5 10 10 0 6 -4 10 -10 10 -5 0
-10 -4 -10 -10z"/>
<path d="M5724 6325 c-8 -19 43 -98 56 -90 16 10 0 58 -26 83 -21 20 -25 21
-30 7z"/>
<path d="M5013 6288 c-22 -24 -39 -78 -25 -78 12 0 72 87 65 94 -11 10 -19 7
-40 -16z"/>
<path d="M4960 6249 c0 -5 5 -7 10 -4 6 3 10 8 10 11 0 2 -4 4 -10 4 -5 0 -10
-5 -10 -11z"/>
<path d="M5470 6054 c0 -14 3 -14 15 -4 8 7 15 14 15 16 0 2 -7 4 -15 4 -8 0
-15 -7 -15 -16z"/>
<path d="M5240 6041 c0 -6 5 -13 10 -16 6 -3 10 1 10 9 0 9 -4 16 -10 16 -5 0
-10 -4 -10 -9z"/>
<path d="M4825 5921 c-61 -42 -73 -44 -88 -14 -9 15 -17 22 -21 15 -10 -16 24
-142 38 -142 14 0 56 53 56 71 0 6 16 27 35 46 57 57 46 70 -20 24z"/>
<path d="M5375 5928 c-17 -5 -57 -7 -90 -6 -49 3 -60 0 -63 -14 -2 -9 6 -21
17 -27 31 -17 140 -17 196 -1 50 15 65 25 65 46 0 14 -81 15 -125 2z"/>
<path d="M5415 5708 c-22 -5 -75 -7 -117 -5 -80 5 -89 0 -69 -32 20 -32 232
-21 253 12 23 36 5 43 -67 25z"/>
<path d="M2885 6700 c3 -5 10 -10 16 -10 5 0 9 5 9 10 0 6 -7 10 -16 10 -8 0
-12 -4 -9 -10z"/>
<path d="M2930 6685 c-10 -12 -10 -18 0 -30 17 -20 27 -19 40 5 14 26 -21 48
-40 25z"/>
<path d="M6375 5880 c-3 -5 -1 -10 4 -10 6 0 11 5 11 10 0 6 -2 10 -4 10 -3 0
-8 -4 -11 -10z"/>
<path d="M6332 5871 c2 -7 7 -12 11 -12 12 1 9 15 -3 20 -7 2 -11 -2 -8 -8z"/>
<path d="M6585 5700 c-3 -5 -1 -10 4 -10 6 0 11 5 11 10 0 6 -2 10 -4 10 -3 0
-8 -4 -11 -10z"/>
<path d="M6523 5656 l-22 -12 27 -12 27 -12 -27 5 c-27 5 -97 -29 -113 -55
-11 -18 -69 -44 -73 -32 -2 7 -14 7 -32 2 -20 -6 -31 -5 -34 3 -3 7 -4 3 -3
-8 1 -11 -4 -20 -13 -20 -24 -1 -120 -39 -120 -47 0 -11 7 -10 38 6 15 7 39
16 54 20 22 5 25 3 21 -14 -9 -33 26 -38 53 -7 32 37 36 23 7 -28 -17 -32 -22
-49 -15 -62 5 -10 8 -23 5 -29 -2 -6 12 -26 31 -45 29 -29 33 -39 29 -68 -4
-24 -8 -29 -15 -20 -6 9 -7 -11 -3 -56 10 -108 14 -134 37 -220 12 -44 26
-104 32 -133 7 -29 14 -50 18 -47 3 3 3 -6 0 -20 -5 -30 -17 -34 153 43 50 22
124 54 166 71 42 18 97 45 123 61 26 17 52 30 59 30 7 0 34 -11 61 -25 55 -27
66 -25 66 10 0 25 -46 67 -88 80 -21 6 -20 8 25 56 27 28 54 61 60 74 11 21
17 23 45 14 18 -5 33 -9 33 -9 6 0 -18 226 -27 253 -14 46 -19 42 -24 -18 -4
-55 -22 -75 -72 -82 -45 -6 -64 11 -67 60 -3 46 11 67 46 67 36 0 49 -25 24
-48 -16 -16 -17 -16 -10 6 7 25 -6 29 -25 7 -15 -18 -10 -45 12 -59 13 -8 22
-5 43 14 19 18 25 33 25 68 0 37 -6 50 -35 79 -31 31 -39 34 -81 31 -52 -3
-66 -18 -32 -33 30 -13 37 -69 12 -96 -23 -25 -60 -25 -67 1 -9 35 39 66 51
32 2 -7 -6 -12 -17 -12 -12 0 -21 -4 -21 -10 0 -14 33 -13 48 2 16 16 15 44
-3 62 -19 18 -40 12 -77 -22 -16 -14 -28 -20 -28 -14 0 7 13 24 30 39 21 18
27 30 20 38 -14 17 6 31 55 38 57 9 111 -6 157 -44 36 -29 40 -30 33 -9 -4 12
-10 43 -14 68 -5 38 -10 47 -26 45 -11 -1 -23 3 -26 9 -4 6 -12 7 -18 4 -6 -4
-9 -11 -6 -16 3 -5 1 -11 -4 -14 -5 -4 -12 -2 -16 4 -3 5 -14 10 -23 10 -13 0
-14 -2 -3 -9 19 -12 2 -19 -62 -27 -54 -6 -170 5 -134 13 30 7 19 30 -15 30
-18 0 -34 5 -36 11 -2 7 -10 12 -18 12 -8 0 -11 -7 -8 -17 5 -15 3 -15 -10 1
-9 11 -16 15 -16 9 0 -6 9 -22 20 -36 12 -15 18 -33 14 -44 -4 -14 -4 -15 4
-4 8 11 13 9 26 -12 9 -13 15 -31 14 -38 -2 -7 4 -13 12 -14 8 0 14 -9 13 -18
-1 -13 4 -17 14 -13 11 5 13 2 9 -10 -4 -9 -2 -22 2 -28 5 -6 12 -23 16 -38 5
-21 2 -30 -15 -39 -22 -11 -22 -31 -3 -96 5 -18 1 -23 -20 -29 -14 -3 -30 -12
-37 -20 -6 -8 -20 -14 -30 -14 -10 0 -39 -10 -63 -22 l-45 -22 57 -32 c64 -35
72 -32 74 31 2 47 15 54 26 13 8 -30 12 -33 40 -30 34 4 37 -2 22 -43 -9 -23
-14 -25 -45 -19 -19 3 -35 3 -35 -1 0 -4 16 -25 35 -48 19 -22 32 -43 29 -46
-3 -3 -12 3 -20 13 -8 11 -14 15 -14 9 0 -5 9 -18 20 -28 20 -18 21 -17 59 24
l40 43 53 -17 c56 -19 78 -32 78 -47 0 -5 -10 -2 -22 6 -30 22 -77 20 -102 -3
-41 -38 -300 -159 -338 -159 -30 1 -37 12 -13 22 8 3 12 12 9 20 -4 11 0 13
14 9 17 -4 183 59 206 79 6 4 0 19 -15 34 -15 17 -20 28 -12 31 17 6 6 29 -23
47 -20 14 -23 14 -18 1 7 -17 -11 -21 -21 -5 -3 6 -12 10 -18 10 -7 0 -4 -5 5
-11 16 -9 78 -91 78 -103 0 -3 -16 -10 -36 -15 -43 -12 -61 -5 -99 41 -22 26
-26 39 -21 67 7 42 -7 29 -24 -23 -10 -30 -10 -43 1 -62 7 -13 16 -24 21 -24
5 0 7 -4 3 -10 -3 -5 -12 -7 -19 -4 -8 3 -21 -4 -29 -16 -9 -12 -20 -20 -25
-17 -5 4 -19 -18 -31 -48 -13 -30 -27 -55 -33 -55 -12 0 -1 54 19 94 12 22 12
27 1 24 -7 -3 -18 -15 -25 -27 -11 -23 -11 -23 -22 -3 -9 16 -8 24 5 36 8 9
20 16 26 16 6 0 8 11 6 25 -4 20 6 36 55 85 39 39 66 59 76 55 10 -3 9 0 -3
10 -29 22 -41 19 -57 -17 -8 -17 -21 -35 -29 -38 -8 -4 -25 -12 -38 -19 -17
-9 -22 -8 -20 1 2 7 -7 14 -18 16 -24 3 -53 52 -31 52 8 0 8 3 -2 9 -9 6 -10
10 -2 16 9 5 9 10 0 21 -6 8 -8 14 -3 14 4 0 -1 7 -12 15 -17 15 -13 16 56 14
41 -1 81 -1 88 0 19 2 14 21 -5 21 -14 0 -15 2 -5 9 10 6 9 10 -7 14 -12 3
-24 13 -27 24 -4 10 -14 26 -22 36 -22 26 -7 32 44 19 38 -10 48 -10 69 4 26
17 32 38 15 49 -5 3 -10 26 -10 51 0 43 1 44 33 44 18 0 38 -5 44 -11 7 -7 19
-9 27 -6 23 9 20 62 -8 131 -21 51 -29 61 -62 72 -21 7 -44 20 -50 29 -13 17
-12 17 -41 1z m67 -36 c8 -5 12 -11 9 -14 -3 -3 -14 1 -25 9 -21 16 -8 20 16
5z m0 -39 c16 -31 12 -59 -11 -72 -17 -9 -25 -8 -37 5 -9 8 -13 19 -9 23 4 3
13 1 19 -5 15 -15 39 3 31 24 -8 23 -59 16 -92 -12 -35 -29 -43 -18 -8 13 50
46 90 55 107 24z m-142 -18 c-2 -10 -9 -17 -14 -16 -5 1 -19 -12 -29 -28 -20
-29 -35 -37 -35 -19 0 13 60 80 72 80 5 0 8 -8 6 -17z m387 -33 c3 -11 2 -28
-4 -37 -9 -16 -10 -14 -11 9 0 15 -4 29 -9 32 -5 4 -7 -4 -4 -15 4 -16 2 -20
-8 -17 -8 2 -15 14 -17 26 -3 18 2 22 22 22 16 0 27 -7 31 -20z m-330 -70 c3
-5 0 -10 -9 -10 -8 0 -23 -3 -33 -7 -16 -6 -16 -5 -4 10 15 19 37 22 46 7z
m177 -22 c-9 -9 -15 -9 -24 0 -10 10 -10 15 2 22 9 6 19 5 24 0 7 -7 6 -14 -2
-22z m-291 -14 c-5 -16 -10 -21 -10 -12 -1 18 10 51 15 45 2 -1 -1 -16 -5 -33z
m-54 -56 c-3 -8 -6 -5 -6 6 -1 11 2 17 5 13 3 -3 4 -12 1 -19z m93 2 c0 -5 -5
-10 -11 -10 -5 0 -7 5 -4 10 3 6 8 10 11 10 2 0 4 -4 4 -10z m424 -22 c-5 -7
-1 -7 11 -1 23 13 58 4 51 -12 -12 -34 -18 -105 -7 -105 19 0 12 -17 -10 -23
-18 -5 -20 -2 -15 19 5 18 2 24 -9 24 -9 0 -20 12 -25 28 -6 15 -14 34 -18 42
-12 22 -3 50 14 43 7 -3 11 -10 8 -15z m-417 -30 c-3 -8 -6 -5 -6 6 -1 11 2
17 5 13 3 -3 4 -12 1 -19z m383 -29 c0 -5 -4 -9 -10 -9 -5 0 -10 7 -10 16 0 8
5 12 10 9 6 -3 10 -10 10 -16z m127 -5 c-3 -3 -12 -4 -19 -1 -8 3 -5 6 6 6 11
1 17 -2 13 -5z m116 -22 c17 -18 35 -82 23 -82 -3 0 -14 17 -23 38 -21 43 -51
52 -77 23 -14 -16 -15 -23 -6 -40 6 -12 16 -19 22 -15 6 4 9 1 6 -7 -3 -8 -12
-13 -21 -13 -12 1 -15 -6 -13 -25 2 -14 1 -19 -1 -9 -9 36 -63 28 -63 -9 0
-13 3 -13 15 -3 12 10 15 10 15 -3 0 -9 -5 -19 -10 -22 -18 -11 -39 14 -38 45
1 24 6 29 34 35 31 5 34 9 34 40 0 56 67 87 103 47z m-663 -32 c0 -5 -4 -10
-10 -10 -5 0 -10 5 -10 10 0 6 5 10 10 10 6 0 10 -4 10 -10z m431 -33 c-1 -12
-15 -9 -19 4 -3 6 1 10 8 8 6 -3 11 -8 11 -12z m-93 -186 c3 -8 -1 -12 -9 -9
-7 2 -15 10 -17 17 -3 8 1 12 9 9 7 -2 15 -10 17 -17z m-198 -172 c0 -5 -4 -9
-10 -9 -5 0 -10 7 -10 16 0 8 5 12 10 9 6 -3 10 -10 10 -16z"/>
<path d="M6867 5313 c-4 -3 -7 -13 -7 -21 0 -12 3 -12 15 -2 8 7 15 16 15 21
0 11 -14 12 -23 2z"/>
<path d="M6358 5593 c7 -3 16 -2 19 1 4 3 -2 6 -13 5 -11 0 -14 -3 -6 -6z"/>
<path d="M6053 5436 c-55 -23 -59 -36 -13 -36 16 0 37 11 55 30 33 35 28 36
-42 6z"/>
<path d="M6610 5391 c-11 -21 2 -71 19 -71 9 0 19 60 13 79 -6 17 -20 13 -32
-8z"/>
<path d="M5976 5383 c-4 -9 -1 -20 6 -25 9 -5 6 -8 -10 -8 -13 0 -20 -4 -17
-10 9 -14 28 -13 49 3 15 11 17 17 7 35 -14 26 -27 28 -35 5z"/>
<path d="M6066 5320 l-46 -49 7 -77 c4 -55 11 -82 24 -95 10 -10 21 -31 24
-46 3 -16 14 -66 25 -113 24 -100 31 -166 23 -198 -5 -19 -10 -22 -32 -17 -18
4 -7 -7 34 -34 32 -22 60 -39 61 -38 3 3 -95 420 -102 437 -4 8 -7 47 -8 85
-1 39 -5 78 -9 87 -7 14 1 24 40 48 26 17 60 34 76 37 47 10 39 19 -17 21 -52
1 -55 0 -100 -48z"/>
<path d="M5580 5351 c0 -5 11 -18 25 -28 l25 -18 -26 -44 c-20 -32 -29 -40
-35 -30 -5 9 -7 1 -4 -20 2 -18 11 -41 19 -50 9 -10 16 -35 16 -55 0 -30 3
-37 15 -32 24 9 75 -5 75 -20 0 -16 26 -19 35 -3 4 6 13 8 20 5 7 -2 15 4 18
15 4 16 2 19 -14 14 -10 -4 -19 -3 -19 1 0 8 31 33 42 34 12 0 38 -57 38 -85
0 -39 29 -44 57 -9 12 16 23 38 23 49 0 14 3 16 11 8 7 -7 8 -20 3 -34 -4 -13
-7 -28 -5 -34 1 -5 0 -24 -4 -42 -4 -24 -13 -35 -30 -39 -37 -9 -30 -24 8 -18
20 4 48 22 75 50 24 24 52 49 64 55 19 10 20 9 15 -10 -3 -11 -1 -21 4 -21 4
0 6 -7 3 -15 -4 -8 -2 -21 4 -28 21 -27 22 -64 2 -82 -11 -10 -17 -22 -14 -26
3 -5 1 -9 -5 -9 -5 0 -18 -3 -28 -7 -16 -6 -16 -5 -4 10 12 15 11 17 -4 17
-10 0 -27 -8 -37 -17 -17 -15 -20 -15 -35 -1 -9 9 -13 24 -10 32 10 24 26 19
20 -6 -5 -22 -5 -22 9 -4 8 10 20 16 26 12 8 -5 12 0 12 13 0 23 16 37 23 19
3 -7 4 -3 4 9 -1 17 -6 22 -19 17 -21 -6 -23 6 -6 27 7 7 -8 -6 -35 -31 -34
-32 -47 -39 -47 -27 0 27 -13 21 -71 -32 -29 -26 -68 -54 -87 -61 -33 -12 -36
-11 -72 25 -33 32 -42 36 -71 31 -34 -6 -34 -6 -11 10 24 18 28 44 12 75 -8
14 -7 19 2 19 7 0 -3 10 -22 22 -26 16 -31 23 -18 26 21 4 31 31 18 47 -7 8
-7 15 -1 19 5 3 12 0 14 -6 3 -7 6 5 6 27 0 29 -7 48 -24 68 -13 15 -26 27
-28 27 -2 0 -9 -19 -16 -42 -9 -30 -33 -62 -85 -112 -73 -71 -99 -89 -213
-146 l-61 -31 19 -67 c33 -119 46 -138 95 -152 44 -13 44 -13 44 -59 -1 -36
-3 -42 -11 -28 -6 9 -9 27 -7 39 2 12 -2 23 -8 25 -7 2 -10 -6 -6 -23 4 -20 2
-25 -8 -19 -10 6 -12 1 -7 -23 9 -45 120 -297 125 -284 5 16 59 -25 65 -49 7
-27 -18 -24 -37 3 -27 39 -18 13 25 -69 74 -138 206 -338 184 -278 -10 27 -7
65 6 81 8 9 8 14 1 14 -23 0 -72 52 -72 77 0 32 17 63 35 63 15 0 2 29 -41 95
-9 13 -17 31 -18 40 -1 9 -15 24 -30 34 -15 10 -34 31 -42 46 -17 34 -17 35 1
35 8 0 15 -6 15 -14 0 -23 40 -66 55 -59 8 3 15 0 15 -6 0 -6 7 -8 15 -5 22 9
18 17 -18 35 -30 15 -32 19 -32 69 0 34 -5 55 -12 57 -12 4 -18 -14 -14 -44 2
-17 -19 -27 -32 -14 -8 8 -8 14 1 23 40 40 -25 93 -74 61 -28 -18 -33 -56 -6
-51 11 2 16 11 14 23 -3 15 -1 17 8 9 9 -9 9 -17 1 -33 -14 -25 -34 -27 -51
-6 -18 21 5 75 32 75 19 0 19 1 -1 26 -26 34 -30 119 -5 128 24 9 74 7 74 -3
0 -5 -11 -8 -25 -8 -57 0 -72 -51 -30 -102 28 -32 84 -56 112 -47 10 3 23 2
29 -2 14 -9 26 -42 15 -42 -16 0 -19 -27 -6 -53 7 -14 11 -28 8 -31 -10 -10
18 -35 33 -29 7 3 11 9 8 14 -3 5 9 29 25 53 17 25 31 51 31 60 0 29 -19 26
-41 -6 -13 -18 -27 -34 -31 -36 -4 -2 -4 -10 -1 -18 3 -8 1 -14 -5 -14 -14 0
-20 22 -10 35 5 5 24 35 44 65 l35 55 57 0 c49 0 57 3 54 18 -2 9 2 17 8 17 5
0 10 -6 10 -14 0 -23 210 55 234 87 22 29 14 47 -20 47 -19 0 -24 5 -24 25 0
15 -15 42 -37 66 -34 38 -36 41 -13 33 14 -5 51 -9 83 -9 48 0 57 -3 57 -17 0
-11 8 -18 20 -18 24 0 25 11 5 98 -37 160 -48 199 -67 230 -18 30 -19 38 -9
73 9 29 9 49 0 81 -14 53 -23 64 -70 89 -47 23 -89 26 -46 3 16 -9 27 -18 24
-21 -3 -2 -14 0 -25 6 -12 6 -31 11 -43 11 -18 0 -15 -5 20 -28 40 -27 77 -69
69 -77 -2 -3 -21 11 -41 30 -20 19 -46 35 -57 35 -25 0 -25 -1 1 -45 12 -20
18 -39 14 -43 -4 -4 -10 -2 -12 5 -19 52 -105 113 -160 113 -21 0 -53 9 -70
20 -18 11 -33 16 -33 11z m90 -66 c-7 -8 -16 -15 -21 -15 -5 0 -6 7 -3 15 4 8
13 15 21 15 13 0 13 -3 3 -15z m61 -37 c-51 -9 -73 -24 -69 -50 4 -26 22 -24
29 4 5 20 7 21 14 6 15 -37 -21 -72 -50 -48 -16 14 -20 57 -6 78 10 17 67 30
101 23 21 -4 17 -6 -19 -13z m79 -56 c0 -5 -11 -14 -25 -20 -26 -12 -33 -4
-13 16 14 14 38 16 38 4z m-5 -51 c-3 -6 -11 -11 -17 -11 -6 0 -6 6 2 15 14
17 26 13 15 -4z m80 -2 c6 -19 0 -38 -9 -28 -10 12 -16 49 -7 49 5 0 13 -9 16
-21z m-145 -9 c0 -5 -2 -10 -4 -10 -3 0 -8 5 -11 10 -3 6 -1 10 4 10 6 0 11
-4 11 -10z m-55 -20 c3 -5 -1 -10 -10 -10 -9 0 -13 5 -10 10 3 6 8 10 10 10 2
0 7 -4 10 -10z m-207 -116 c-2 -12 -11 -18 -22 -16 -14 3 -16 -1 -11 -20 6
-22 5 -22 -9 -5 -16 21 -12 45 12 65 19 15 35 2 30 -24z m-64 -43 c4 -5 -14
-19 -39 -31 -78 -38 -118 -140 -84 -214 15 -32 67 -46 84 -22 12 16 35 22 35
9 0 -15 -35 -43 -54 -43 -36 0 -66 12 -66 25 0 7 -7 12 -16 11 -14 -1 -16 10
-15 78 1 44 9 92 16 107 14 26 70 67 110 80 11 4 21 7 22 8 1 1 4 -3 7 -8z
m61 -37 c19 -14 17 -15 -20 -9 -45 8 -70 -10 -78 -55 -4 -23 -4 -22 -5 5 -2
37 7 51 38 64 34 13 42 13 65 -5z m477 -16 c-6 -6 -15 -8 -19 -4 -4 4 -1 11 7
16 8 5 17 7 19 4 3 -2 -1 -10 -7 -16z m-462 -44 c0 -13 5 -24 10 -24 6 0 10
-4 10 -9 0 -5 5 -22 11 -38 7 -15 13 -44 13 -64 1 -21 11 -45 24 -59 26 -28
22 -35 -15 -26 -18 5 -23 10 -15 15 15 9 5 41 -12 41 -7 0 -12 17 -13 42 -2
46 -14 64 -37 55 -11 -4 -16 -20 -17 -44 0 -21 -4 -47 -9 -58 -6 -14 -8 -1 -8
40 1 33 6 63 12 67 6 5 1 8 -11 8 -14 0 -23 6 -23 15 0 8 9 15 20 15 11 0 20
5 20 10 0 6 -7 10 -15 10 -8 0 -15 5 -15 10 0 16 32 11 47 -7 13 -16 14 -15 8
10 -4 19 -2 26 5 22 5 -3 10 -17 10 -31z m389 -51 c-11 -21 -11 -27 -1 -30 6
-3 10 -9 6 -14 -3 -5 0 -9 5 -9 6 0 11 5 11 10 0 20 20 9 25 -13 4 -15 -4 -45
-22 -83 -22 -46 -37 -63 -66 -77 -30 -15 -41 -16 -52 -7 -18 15 -20 33 -2 27
6 -2 11 -10 9 -16 -1 -7 2 -10 7 -7 15 10 9 43 -11 55 -15 9 -18 8 -18 -6 -1
-10 -8 -29 -16 -43 l-15 -25 6 25 c17 63 17 70 5 70 -7 0 -21 -11 -32 -25 -13
-17 -29 -25 -51 -25 l-32 0 33 17 c18 8 31 18 28 20 -2 3 -13 0 -24 -6 -11 -6
-22 -8 -25 -4 -10 9 20 33 42 33 18 0 21 6 21 38 0 20 4 32 8 26 8 -12 52 -38
56 -32 2 2 18 31 36 66 18 34 37 62 41 62 5 0 6 -7 3 -15 -4 -8 -2 -15 4 -15
5 0 12 10 15 22 4 12 9 19 13 15 4 -4 1 -19 -7 -34z m-313 -29 c-13 -12 -20
-14 -29 -5 -8 8 -8 11 1 11 7 0 12 10 12 22 0 21 1 21 16 6 16 -15 16 -18 0
-34z m-166 1 c11 -13 8 -15 -18 -15 -34 0 -52 -18 -31 -31 11 -7 11 -9 -3 -9
-9 0 -19 4 -22 8 -9 15 6 51 23 55 30 8 39 7 51 -8z m90 -17 c0 -6 -6 -5 -15
2 -8 7 -15 14 -15 16 0 2 7 1 15 -2 8 -4 15 -11 15 -16z m123 -5 c-7 -3 -13
-10 -13 -16 0 -6 11 0 25 13 27 26 31 19 14 -28 -7 -20 -19 -32 -36 -37 -33
-8 -48 6 -34 33 16 29 42 54 50 46 3 -4 0 -9 -6 -11z m327 -125 c0 -6 -6 -5
-15 2 -8 7 -15 14 -15 16 0 2 7 1 15 -2 8 -4 15 -11 15 -16z m-378 -33 c9 -21
9 -29 -4 -41 -13 -13 -16 -13 -28 0 -11 14 -9 16 10 16 18 0 20 3 10 14 -9 11
-18 13 -38 5 -26 -10 -26 -10 -7 10 24 28 43 26 57 -4z m48 5 c0 -5 -4 -10
-10 -10 -5 0 -10 5 -10 10 0 6 5 10 10 10 6 0 10 -4 10 -10z m-160 -30 c0 -5
-7 -10 -15 -10 -8 0 -15 5 -15 10 0 6 7 10 15 10 8 0 15 -4 15 -10z m-4 -236
c-3 -7 -1 -16 4 -19 6 -4 10 -15 10 -25 0 -10 10 -26 22 -34 16 -12 18 -16 7
-16 -25 0 -46 31 -54 79 -5 32 -4 42 5 36 6 -4 9 -13 6 -21z m84 -164 c10 -6
14 -24 13 -57 -1 -26 3 -56 9 -66 8 -15 7 -18 -4 -15 -8 3 -14 24 -16 59 -2
30 -8 59 -14 64 -7 7 -9 6 -4 -2 8 -14 -10 -27 -29 -19 -18 7 -7 46 14 46 9 0
23 -5 31 -10z"/>
<path d="M5837 4793 c-11 -10 -8 -43 3 -43 6 0 10 11 10 25 0 26 -2 29 -13 18z"/>
<path d="M5810 4727 c0 -19 16 -31 24 -18 3 5 -1 14 -9 21 -12 10 -15 10 -15
-3z"/>
<path d="M5792 4673 c2 -9 9 -18 16 -21 18 -6 15 25 -4 32 -11 4 -14 1 -12
-11z"/>
<path d="M5835 5350 c-3 -5 1 -10 9 -10 9 0 16 5 16 10 0 6 -4 10 -9 10 -6 0
-13 -4 -16 -10z"/>
<path d="M6270 5332 c0 -15 50 -72 62 -72 6 0 5 7 -3 16 -7 9 -18 25 -24 37
-11 22 -35 35 -35 19z"/>
<path d="M5748 5323 c7 -3 16 -2 19 1 4 3 -2 6 -13 5 -11 0 -14 -3 -6 -6z"/>
<path d="M6177 5313 c-12 -7 -29 -12 -38 -13 -29 0 -50 -45 -47 -104 1 -30 4
-53 7 -50 11 11 29 78 24 87 -3 6 -1 7 4 4 6 -4 13 2 16 13 3 11 10 20 16 20
10 0 17 -80 13 -133 -1 -11 4 -38 11 -60 8 -23 23 -70 33 -104 10 -35 21 -63
24 -62 9 0 47 66 54 93 5 20 3 26 -5 21 -8 -5 -9 1 -5 22 5 21 0 44 -19 80
-14 28 -25 64 -25 79 0 16 -7 38 -15 48 -19 26 -19 46 1 46 8 0 13 -4 10 -9
-7 -10 42 -78 52 -71 4 3 8 -11 10 -30 2 -19 12 -77 22 -127 11 -51 21 -115
22 -143 1 -27 6 -50 10 -50 13 0 9 -45 -4 -59 -11 -10 -10 -11 5 -5 14 5 17 2
14 -16 -2 -12 -10 -26 -18 -31 -11 -7 -9 -9 9 -9 12 0 25 -8 29 -17 3 -10 18
-31 32 -46 l25 -28 -34 18 c-19 9 -41 23 -48 29 -14 15 -40 9 -39 -9 1 -31 -4
-47 -14 -47 -6 0 -9 9 -6 19 3 12 -1 22 -9 25 -8 3 -14 1 -14 -4 0 -6 -11 -5
-25 2 -31 14 -38 8 -26 -23 7 -17 10 -19 10 -6 1 9 6 17 11 17 15 0 12 -26 -3
-39 -11 -8 -17 -5 -26 15 -15 34 -25 25 -11 -11 12 -30 2 -50 -30 -60 -20 -6
-34 -45 -17 -45 7 0 3 -7 -8 -16 -17 -12 -18 -16 -5 -24 22 -14 30 -2 25 37
-4 31 -2 35 15 30 11 -3 18 -1 14 4 -3 5 0 9 6 9 21 0 22 -30 1 -63 -21 -35
-27 -81 -13 -114 5 -13 9 -3 12 32 l6 50 13 -30 c8 -20 9 -31 2 -33 -6 -2 -11
-7 -11 -12 0 -11 73 27 87 46 6 9 22 14 35 12 19 -2 26 -13 38 -61 9 -32 18
-56 20 -53 3 2 6 -12 6 -32 3 -72 7 -101 15 -96 4 2 7 50 5 105 -3 107 7 119
23 29 5 -30 19 -91 31 -135 25 -97 27 -105 30 -175 2 -37 4 -45 7 -25 l5 30
14 -34 c28 -66 25 -22 -10 140 -53 250 -60 289 -50 298 5 5 56 30 114 55 93
42 149 72 95 52 -116 -45 -153 -56 -172 -51 -17 4 -21 2 -17 -10 4 -8 2 -15
-4 -15 -10 0 -24 41 -17 49 3 2 18 4 35 4 16 0 27 4 24 9 -3 4 -17 8 -31 8
l-26 0 26 20 c14 11 35 20 46 20 12 0 21 5 21 10 0 6 11 10 24 10 14 0 28 5
31 10 6 9 -8 14 -27 11 -5 0 -8 4 -8 10 0 8 -4 8 -12 2 -17 -12 -56 -14 -63
-3 -3 5 -12 7 -20 3 -8 -3 -15 0 -15 6 0 6 8 11 18 11 14 0 15 2 2 10 -13 9
-13 11 0 20 8 5 20 10 27 10 7 0 17 8 22 19 6 10 22 22 37 25 14 4 24 9 21 12
-7 7 -127 -46 -145 -63 -34 -33 -48 -3 -92 202 -17 83 -38 180 -46 217 -8 36
-11 73 -8 81 3 8 -11 40 -31 71 -38 59 -58 67 -108 39z m125 -688 c0 -5 -5
-11 -11 -13 -6 -2 -11 4 -11 13 0 9 5 15 11 13 6 -2 11 -8 11 -13z m1 -40 c-3
-9 -8 -14 -10 -11 -3 3 -2 9 2 15 9 16 15 13 8 -4z m-53 -5 c0 -5 -4 -10 -10
-10 -5 0 -10 5 -10 10 0 6 5 10 10 10 6 0 10 -4 10 -10z m157 -192 c-3 -8 -6
-5 -6 6 -1 11 2 17 5 13 3 -3 4 -12 1 -19z"/>
<path d="M6679 5297 l-26 -32 28 -23 c39 -32 83 -27 87 9 2 14 -2 37 -7 52
-14 37 -49 34 -82 -6z"/>
<path d="M6625 5240 c-3 -5 -1 -10 4 -10 6 0 11 5 11 10 0 6 -2 10 -4 10 -3 0
-8 -4 -11 -10z"/>
<path d="M7166 5215 c4 -8 10 -15 15 -15 5 0 9 7 9 15 0 8 -7 15 -15 15 -9 0
-12 -6 -9 -15z"/>
<path d="M6551 5141 c-9 -6 -10 -11 -2 -15 13 -8 31 1 31 15 0 11 -11 11 -29
0z"/>
<path d="M5445 5129 c-4 -6 -5 -12 -2 -15 2 -3 7 2 10 11 7 17 1 20 -8 4z"/>
<path d="M7070 5127 c0 -8 -9 -22 -20 -32 -26 -24 -26 -27 11 -49 44 -26 61
-72 46 -118 -15 -41 -35 -68 -51 -68 -6 0 -3 7 7 14 23 18 22 29 -2 14 -17
-10 -19 -22 -16 -92 3 -77 2 -81 -28 -118 -18 -20 -38 -38 -45 -38 -21 0 -122
-51 -122 -61 0 -5 5 -9 10 -9 6 0 10 -7 10 -15 0 -23 -17 -18 -23 6 -4 16 -10
20 -24 14 -10 -4 -52 -19 -93 -33 -41 -15 -76 -30 -78 -34 -2 -4 -16 -8 -31
-8 -16 0 -40 -9 -53 -20 -14 -10 -27 -17 -30 -15 -3 3 -13 -4 -23 -15 -17 -19
-17 -24 -2 -97 9 -43 26 -125 37 -183 34 -165 42 -191 57 -178 7 6 13 16 13
22 0 6 18 30 41 53 22 23 38 46 35 51 -3 5 13 28 37 50 97 94 129 141 149 220
11 44 19 59 69 122 l19 25 -6 -30 c-4 -16 -11 -34 -15 -39 -5 -6 -9 -23 -9
-39 0 -18 -11 -42 -30 -64 -29 -33 -39 -63 -21 -63 5 0 11 6 14 13 2 6 7 9 11
6 4 -4 -1 -15 -11 -25 -17 -17 -27 -54 -14 -54 3 0 15 13 26 29 11 17 27 32
37 34 13 4 16 11 11 23 -5 14 -3 16 11 11 15 -6 18 -3 13 18 -3 20 -1 25 10
21 12 -5 13 0 7 26 -6 31 -5 32 12 18 10 -8 15 -10 11 -4 -4 8 5 13 27 16 34
4 35 3 30 -27 -7 -41 11 -12 21 35 7 35 7 35 -13 16 -14 -12 -28 -16 -39 -11
-15 6 -14 9 10 17 33 12 33 41 1 46 -15 2 -34 -11 -64 -45 -34 -38 -39 -42
-27 -18 8 17 15 38 15 45 -2 32 2 50 12 50 7 0 7 -6 0 -20 -26 -48 34 0 73 60
21 31 22 89 2 96 -24 10 -17 22 10 16 21 -4 25 -10 25 -41 0 -20 -9 -54 -20
-76 -11 -21 -19 -40 -17 -41 1 -1 12 -5 25 -8 17 -6 22 -3 23 11 0 10 6 74 12
143 7 69 10 193 7 278 -5 149 -5 152 -23 131 -10 -11 -21 -18 -24 -15 -4 3 2
15 11 25 10 11 15 25 11 30 -9 16 -45 13 -45 -2z m52 -309 c6 -16 -1 -38 -12
-38 -11 0 -21 30 -14 41 8 13 21 11 26 -3z m-19 -90 c9 -31 2 -33 -11 -3 -6
14 -8 25 -3 25 5 0 11 -10 14 -22z m-62 -121 c-16 -16 -26 0 -10 19 9 11 15
12 17 4 2 -6 -1 -17 -7 -23z m-37 -12 c-7 -16 -25 -19 -64 -8 -23 7 -21 8 15
14 22 3 43 7 47 8 4 0 5 -6 2 -14z m-171 -36 c-14 -14 -115 -51 -121 -44 -3 2
4 7 14 11 10 3 37 14 59 25 46 21 64 24 48 8z m22 -71 c-8 -46 -12 -55 -20
-46 -9 9 7 88 17 88 6 0 7 -17 3 -42z m-160 12 c-3 -5 -11 -10 -16 -10 -6 0
-7 5 -4 10 3 6 11 10 16 10 6 0 7 -4 4 -10z m85 4 c0 -13 -21 -44 -30 -44 -14
0 -12 24 2 38 13 13 28 16 28 6z m280 -18 c0 -3 -4 -8 -10 -11 -5 -3 -10 -1
-10 4 0 6 5 11 10 11 6 0 10 -2 10 -4z m-410 -14 c0 -2 -16 -32 -27 -51 -2 -2
-12 4 -23 14 -24 22 -11 44 25 41 14 0 25 -2 25 -4z m99 -82 c17 0 -3 -60 -25
-75 -22 -14 -27 -13 -93 27 -38 23 -82 51 -98 64 -23 19 -25 23 -12 29 10 4
52 -13 108 -44 116 -65 132 -65 95 -1 -15 24 -15 30 -3 43 12 13 14 11 17 -14
2 -16 7 -29 11 -29z m-69 18 c0 -6 -6 -5 -15 2 -8 7 -15 14 -15 16 0 2 7 1 15
-2 8 -4 15 -11 15 -16z m153 2 c-3 -11 -9 -20 -14 -20 -5 0 -9 9 -9 20 0 11 6
20 14 20 9 0 12 -7 9 -20z m-20 -26 c19 -20 -114 -207 -176 -246 -35 -22 -37
-25 -31 -62 4 -25 3 -36 -4 -32 -12 7 -36 139 -29 158 2 7 8 -4 12 -24 8 -43
18 -47 42 -18 10 11 23 20 29 20 15 0 25 38 13 46 -11 6 7 44 21 44 6 0 5 -9
-2 -20 -7 -10 -8 -23 -4 -27 5 -4 11 -2 14 6 2 7 13 21 23 29 11 9 19 22 19
29 0 7 5 13 10 13 6 0 10 6 10 14 0 7 7 19 15 26 8 7 15 21 15 31 0 19 11 25
23 13z m-236 -37 c-6 -19 -24 -18 -29 1 -4 15 -1 18 14 14 10 -2 17 -9 15 -15z
m28 -97 c-32 -33 -45 -38 -45 -14 0 8 4 13 9 10 4 -3 16 3 26 14 10 11 23 20
28 20 6 0 -2 -13 -18 -30z"/>
<path d="M6420 5120 c0 -5 7 -10 16 -10 8 0 12 5 9 10 -3 6 -10 10 -16 10 -5
0 -9 -4 -9 -10z"/>
<path d="M6505 5110 c-4 -6 3 -10 14 -10 25 0 27 6 6 13 -8 4 -17 2 -20 -3z"/>
<path d="M6597 5109 c7 -7 15 -10 18 -7 3 3 -2 9 -12 12 -14 6 -15 5 -6 -5z"/>
<path d="M6790 5070 c-13 -8 -12 -10 3 -10 9 0 17 5 17 10 0 12 -1 12 -20 0z"/>
<path d="M6128 5040 c2 -16 6 -30 8 -30 2 0 4 14 4 30 0 17 -4 30 -8 30 -5 0
-7 -13 -4 -30z"/>
<path d="M6996 5041 c-4 -5 14 -19 39 -31 38 -18 45 -26 45 -51 0 -16 4 -29 8
-29 14 0 0 64 -17 81 -17 16 -55 39 -65 39 -3 0 -7 -4 -10 -9z"/>
<path d="M5866 5001 c-11 -11 -26 -21 -33 -21 -18 0 -11 -24 8 -28 24 -4 51
22 47 47 l-3 23 -19 -21z"/>
<path d="M7180 4986 c0 -8 5 -18 10 -21 6 -3 10 3 10 14 0 12 -4 21 -10 21 -5
0 -10 -6 -10 -14z"/>
<path d="M6146 4960 c8 -43 14 -51 14 -19 0 13 -5 31 -10 39 -7 11 -8 5 -4
-20z"/>
<path d="M5255 4969 c-4 -6 -5 -12 -2 -15 2 -3 7 2 10 11 7 17 1 20 -8 4z"/>
<path d="M6515 4960 c-3 -5 -1 -10 4 -10 6 0 11 5 11 10 0 6 -2 10 -4 10 -3 0
-8 -4 -11 -10z"/>
<path d="M5671 4909 c-20 -26 -22 -34 -12 -53 7 -12 21 -28 32 -35 17 -10 25
-9 46 4 22 15 24 22 19 55 -4 26 -2 40 7 43 6 3 0 6 -15 6 -14 1 -32 3 -40 5
-7 3 -24 -9 -37 -25z"/>
<path d="M5793 4923 c-21 -8 -15 -22 7 -16 11 3 20 9 20 14 0 10 -8 10 -27 2z"/>
<path d="M6941 4911 c-11 -7 -9 -11 8 -20 12 -7 19 -16 16 -22 -4 -5 -2 -9 4
-9 5 0 8 -27 6 -64 -2 -49 -8 -70 -24 -88 -20 -21 -20 -23 -4 -29 14 -5 11 -8
-14 -13 -18 -4 -35 -11 -38 -16 -15 -24 75 17 103 47 30 33 32 41 32 105 0 65
-1 69 -27 79 -22 8 -25 12 -13 21 12 8 11 9 -4 4 -11 -4 -22 -2 -25 3 -4 6
-12 6 -20 2z"/>
<path d="M5096 4863 c-6 -14 -5 -15 5 -6 7 7 10 15 7 18 -3 3 -9 -2 -12 -12z"/>
<path d="M6341 4844 c0 -11 3 -14 6 -6 3 7 2 16 -1 19 -3 4 -6 -2 -5 -13z"/>
<path d="M6172 4820 c0 -14 2 -19 5 -12 2 6 2 18 0 25 -3 6 -5 1 -5 -13z"/>
<path d="M6578 4823 c7 -3 16 -2 19 1 4 3 -2 6 -13 5 -11 0 -14 -3 -6 -6z"/>
<path d="M6874 4789 c-21 -17 -39 -36 -39 -42 0 -7 -14 -13 -31 -14 -33 -1
-84 -28 -84 -44 0 -14 27 -10 62 9 18 11 49 24 68 31 24 8 41 23 53 47 10 20
16 38 14 40 -2 3 -21 -10 -43 -27z"/>
<path d="M6310 4768 c-12 -22 -12 -22 6 -6 10 10 15 20 12 24 -4 3 -12 -5 -18
-18z"/>
<path d="M7160 4780 c0 -5 5 -10 11 -10 5 0 7 5 4 10 -3 6 -8 10 -11 10 -2 0
-4 -4 -4 -10z"/>
<path d="M6026 4701 c-3 -5 5 -16 19 -25 28 -18 33 -36 10 -36 -8 0 -32 -16
-53 -37 -25 -24 -58 -42 -98 -54 -71 -20 -117 -36 -164 -57 -19 -9 -41 -16
-49 -16 -8 -1 -16 -7 -19 -15 -8 -25 81 -3 272 68 100 38 192 74 205 80 22 12
22 13 -16 33 -21 11 -52 31 -70 44 -17 13 -34 20 -37 15z m19 -101 c-3 -5 -13
-10 -21 -10 -8 0 -12 5 -9 10 3 6 13 10 21 10 8 0 12 -4 9 -10z"/>
<path d="M7150 4684 c0 -14 4 -23 10 -19 6 3 10 15 10 26 0 10 -4 19 -10 19
-5 0 -10 -12 -10 -26z"/>
<path d="M5150 4681 c0 -6 4 -13 10 -16 6 -3 7 1 4 9 -7 18 -14 21 -14 7z"/>
<path d="M6685 4670 c-3 -5 -2 -10 4 -10 5 0 13 5 16 10 3 6 2 10 -4 10 -5 0
-13 -4 -16 -10z"/>
<path d="M6643 4649 c-2 -17 1 -18 12 -9 8 7 12 16 9 21 -9 16 -20 10 -21 -12z"/>
<path d="M5250 4609 c0 -5 5 -7 10 -4 6 3 10 8 10 11 0 2 -4 4 -10 4 -5 0 -10
-5 -10 -11z"/>
<path d="M6120 4560 c0 -5 5 -10 10 -10 6 0 10 5 10 10 0 6 -4 10 -10 10 -5 0
-10 -4 -10 -10z"/>
<path d="M6065 4541 c-3 -5 -19 -12 -35 -16 -17 -4 -30 -11 -30 -16 0 -12 0
-12 61 15 36 17 47 25 32 25 -12 1 -24 -3 -28 -8z"/>
<path d="M5945 4490 c-3 -5 -1 -10 4 -10 6 0 11 5 11 10 0 6 -2 10 -4 10 -3 0
-8 -4 -11 -10z"/>
<path d="M6077 4478 c2 -5 -8 -13 -22 -20 -19 -8 -22 -14 -13 -20 10 -6 9 -12
-6 -23 -11 -8 -26 -15 -33 -15 -7 0 -13 -4 -13 -9 0 -5 -14 -14 -30 -21 -47
-20 -28 -23 21 -4 24 10 62 36 84 59 22 24 49 47 60 53 17 9 15 11 -16 9 -21
-1 -35 -5 -32 -9z"/>
<path d="M5230 4470 c0 -5 5 -10 11 -10 5 0 7 5 4 10 -3 6 -8 10 -11 10 -2 0
-4 -4 -4 -10z"/>
<path d="M5890 4470 c-8 -5 -10 -10 -5 -10 6 0 17 5 25 10 8 5 11 10 5 10 -5
0 -17 -5 -25 -10z"/>
<path d="M5805 4440 c-22 -11 -31 -17 -20 -14 11 4 28 7 38 8 9 0 17 3 17 7 0
4 8 10 18 12 12 3 13 5 2 6 -8 0 -33 -8 -55 -19z"/>
<path d="M5969 4410 c-31 -25 -19 -25 28 0 29 15 33 20 16 20 -11 0 -31 -9
-44 -20z"/>
<path d="M5666 4384 c-10 -14 -16 -30 -14 -35 2 -6 11 6 21 25 20 42 16 47 -7
10z"/>
<path d="M5920 4379 c0 -5 5 -7 10 -4 6 3 10 8 10 11 0 2 -4 4 -10 4 -5 0 -10
-5 -10 -11z"/>
<path d="M5890 4360 c0 -5 5 -10 10 -10 6 0 10 5 10 10 0 6 -4 10 -10 10 -5 0
-10 -4 -10 -10z"/>
<path d="M6125 4340 c-138 -58 -174 -74 -172 -77 4 -4 164 58 192 75 23 13 10
15 -20 2z"/>
<path d="M6176 4325 c-33 -13 -65 -30 -73 -37 -10 -11 -6 -13 22 -12 24 1 35
-2 35 -12 0 -8 -4 -14 -10 -14 -5 0 -7 -7 -4 -15 8 -19 -10 -19 -40 0 -21 14
-28 14 -80 -5 -54 -21 -81 -48 -33 -35 15 4 18 3 8 -3 -10 -7 -5 -16 23 -38
20 -16 36 -38 36 -49 0 -12 13 -27 31 -37 36 -21 49 -22 49 -5 1 29 17 38 54
32 20 -4 36 -11 36 -17 0 -5 -5 -6 -11 -3 -6 4 -17 -2 -25 -14 -9 -12 -18 -20
-22 -17 -4 2 -14 1 -24 -3 -14 -5 -12 -11 13 -41 20 -24 29 -29 29 -17 0 10 5
14 15 11 8 -4 15 -12 15 -20 0 -10 -13 -14 -46 -14 -37 0 -45 3 -40 15 4 11 0
15 -12 13 -9 -2 -20 -7 -23 -12 -9 -11 -72 10 -128 42 -51 29 -131 99 -131
115 0 6 14 -4 32 -22 37 -38 68 -57 68 -41 0 5 -5 10 -10 10 -6 0 -26 16 -44
35 -40 41 -61 38 -114 -16 -29 -30 -33 -31 -49 -16 -36 32 -67 37 -101 15 -61
-38 -37 -84 61 -117 71 -25 83 -31 69 -40 -8 -5 -7 -14 1 -30 7 -13 15 -22 18
-20 4 2 16 -5 28 -15 14 -13 21 -15 21 -6 0 9 6 8 20 -5 13 -12 20 -14 20 -5
0 8 4 9 13 3 17 -13 89 -11 94 4 2 6 -10 27 -28 47 -22 26 -39 36 -60 36 -22
0 -32 7 -44 30 -18 34 -32 38 -52 13 -13 -17 -14 -16 -8 5 8 27 -12 30 -31 5
-11 -15 -13 -15 -14 -3 0 33 16 43 56 34 22 -5 46 -9 56 -9 9 0 37 -20 62 -43
25 -23 49 -42 53 -42 62 -3 350 -47 365 -56 29 -18 25 14 -41 318 -11 54 -21
100 -21 103 0 3 -5 5 -10 5 -6 0 -20 -21 -32 -47 -56 -125 -91 -193 -100 -193
-5 0 -16 6 -23 14 -12 12 -11 15 5 19 11 3 25 18 31 34 32 80 86 186 99 193 8
5 13 11 10 14 -3 2 -32 -6 -64 -19z m77 -142 c2 -13 6 -26 10 -29 4 -4 7 -19
7 -33 0 -14 7 -44 15 -66 8 -22 14 -56 15 -75 0 -20 5 -41 12 -48 6 -6 8 -15
4 -19 -4 -5 -14 0 -21 11 -13 18 -19 38 -51 191 -9 38 -21 73 -27 77 -9 6 -8
10 3 18 18 11 28 2 33 -27z m-582 -105 c1 -7 1 -19 0 -25 -3 -21 9 -15 19 10
6 15 9 17 9 6 1 -9 -8 -27 -19 -40 -15 -19 -19 -20 -20 -8 0 9 -9 19 -20 22
-25 6 -27 25 -2 23 9 0 16 5 15 12 -2 6 2 12 7 12 6 0 11 -6 11 -12z m559 -49
c0 -11 -4 -17 -10 -14 -5 3 -10 15 -10 26 0 11 5 17 10 14 6 -3 10 -15 10 -26z
m24 -50 c-3 -5 -10 -7 -15 -3 -5 3 -7 10 -3 15 3 5 10 7 15 3 5 -3 7 -10 3
-15z m-440 -48 c7 -10 -33 -23 -46 -15 -5 3 -6 10 -3 15 8 12 42 12 49 0z"/>
<path d="M5624 4313 c-9 -14 -6 -26 14 -56 20 -30 27 -35 34 -24 10 18 -13 65
-29 60 -7 -3 -9 3 -6 16 7 26 2 27 -13 4z"/>
<path d="M7068 4310 c-11 -38 -10 -56 3 -43 6 6 9 23 7 39 l-3 29 -7 -25z"/>
<path d="M5320 4270 c0 -5 5 -10 11 -10 5 0 7 5 4 10 -3 6 -8 10 -11 10 -2 0
-4 -4 -4 -10z"/>
<path d="M5577 4248 c-5 -16 10 -44 40 -75 38 -40 43 -25 10 32 -32 56 -42 65
-50 43z"/>
<path d="M6443 4193 c2 -18 0 -33 -5 -33 -4 0 -8 -5 -8 -11 0 -6 6 -9 13 -7
14 5 17 35 5 63 -6 16 -7 13 -5 -12z"/>
<path d="M5670 4194 c0 -8 5 -12 10 -9 6 3 10 10 10 16 0 5 -4 9 -10 9 -5 0
-10 -7 -10 -16z"/>
<path d="M5870 4200 c-8 -5 -10 -10 -5 -10 6 0 17 5 25 10 8 5 11 10 5 10 -5
0 -17 -5 -25 -10z"/>
<path d="M5900 4124 c0 -2 9 -8 20 -14 11 -6 20 -7 20 -2 0 6 -9 12 -20 15
-11 3 -20 3 -20 1z"/>
<path d="M6450 4123 c0 -4 5 -15 10 -23 8 -13 10 -13 10 2 0 9 -4 20 -10 23
-5 3 -10 3 -10 -2z"/>
<path d="M5960 4080 c40 -28 48 -30 54 -14 4 11 1 14 -13 9 -11 -3 -22 -1 -26
5 -3 5 -12 10 -18 10 -7 0 -6 -4 3 -10z"/>
<path d="M6036 4035 c4 -8 8 -15 10 -15 2 0 4 7 4 15 0 8 -4 15 -10 15 -5 0
-7 -7 -4 -15z"/>
<path d="M6470 4040 c-1 -8 -3 -26 -4 -38 -2 -13 3 -26 11 -29 15 -6 14 -44
-1 -55 -5 -3 -2 -13 6 -22 14 -14 16 -13 21 11 3 15 4 39 2 53 -5 35 -33 99
-35 80z"/>
<path d="M6650 4008 c-16 -22 -30 -47 -30 -54 0 -7 -5 -14 -11 -16 -8 -3 -7
-16 2 -46 7 -23 14 -40 16 -38 2 2 8 32 14 67 6 35 19 79 29 97 27 45 16 40
-20 -10z"/>
<path d="M7022 3970 c0 -14 2 -19 5 -12 2 6 2 18 0 25 -3 6 -5 1 -5 -13z"/>
<path d="M6442 3950 c0 -14 2 -19 5 -12 2 6 2 18 0 25 -3 6 -5 1 -5 -13z"/>
<path d="M5691 3943 c0 -10 5 -27 10 -38 7 -16 8 -14 4 9 -5 23 -3 27 9 23 9
-4 16 -2 16 2 0 8 -23 21 -36 21 -2 0 -4 -8 -3 -17z"/>
<path d="M6556 3942 c-2 -4 -7 -25 -10 -47 l-6 -40 19 40 c11 22 20 43 20 48
1 9 -16 9 -23 -1z"/>
<path d="M5647 3927 c-7 -19 8 -41 22 -32 8 5 9 11 2 19 -6 7 -8 16 -4 19 3 4
2 7 -4 7 -6 0 -13 -6 -16 -13z"/>
<path d="M5528 3903 c7 -3 16 -2 19 1 4 3 -2 6 -13 5 -11 0 -14 -3 -6 -6z"/>
<path d="M6577 3864 c-3 -3 1 -27 9 -52 18 -61 18 -70 -3 -68 -18 1 -20 -11
-12 -76 3 -25 7 -27 37 -24 28 4 35 1 44 -22 6 -15 11 -30 10 -34 -1 -5 5 -8
13 -8 19 0 19 9 2 29 -19 22 -53 113 -73 191 -18 72 -18 73 -27 64z m47 -179
c3 -8 1 -15 -4 -15 -6 0 -10 7 -10 15 0 8 2 15 4 15 2 0 6 -7 10 -15z"/>
<path d="M6510 3804 c0 -6 7 -19 15 -30 8 -10 14 -14 14 -9 0 6 -6 19 -14 29
-8 11 -15 15 -15 10z"/>
<path d="M5692 3780 c7 -10 14 -18 15 -16 6 6 -9 36 -18 36 -5 0 -4 -9 3 -20z"/>
<path d="M6100 3742 c1 -4 7 -18 14 -31 8 -15 16 -20 20 -12 4 6 3 11 -3 11
-6 0 -8 6 -5 14 3 7 -2 16 -10 19 -9 4 -16 3 -16 -1z"/>
<path d="M6820 3709 c0 -5 5 -7 10 -4 6 3 10 8 10 11 0 2 -4 4 -10 4 -5 0 -10
-5 -10 -11z"/>
<path d="M6847 3669 c7 -7 15 -10 18 -7 3 3 -2 9 -12 12 -14 6 -15 5 -6 -5z"/>
<path d="M6690 3621 c0 -6 5 -19 11 -29 9 -15 0 -29 -61 -90 -42 -42 -76 -69
-80 -63 -7 12 -135 20 -146 9 -4 -4 -1 -14 6 -23 13 -16 80 -21 80 -6 0 6 14
5 35 0 33 -9 39 -7 71 20 19 17 34 34 34 38 -1 5 9 10 22 13 12 3 28 16 34 29
7 12 17 28 23 34 17 17 13 42 -9 62 -12 10 -20 13 -20 6z"/>
<path d="M6325 3500 c-3 -5 -2 -10 4 -10 5 0 13 5 16 10 3 6 2 10 -4 10 -5 0
-13 -4 -16 -10z"/>
<path d="M5940 3470 c0 -6 -4 -8 -10 -5 -5 3 -10 1 -10 -4 0 -13 10 -14 29 -2
9 6 10 11 2 15 -6 4 -11 2 -11 -4z"/>
<path d="M6306 3425 c-11 -8 -15 -15 -9 -15 6 0 16 7 23 15 16 19 11 19 -14 0z"/>
<path d="M6185 3400 c-3 -5 -2 -10 4 -10 5 0 13 5 16 10 3 6 2 10 -4 10 -5 0
-13 -4 -16 -10z"/>
<path d="M5942 8530 c0 -19 2 -27 5 -17 2 9 2 25 0 35 -3 9 -5 1 -5 -18z"/>
<path d="M5580 8467 c-25 -9 -40 -23 -54 -50 -23 -48 -23 -74 -1 -121 28 -58
79 -87 154 -87 78 -1 106 16 114 68 14 85 -38 166 -120 191 -48 14 -48 14 -93
-1z"/>
<path d="M5207 8445 c-26 -8 -62 -23 -80 -34 l-33 -20 -1 21 c-3 30 -10 33
-31 15 -22 -20 -22 -21 -27 -105 -7 -126 52 -167 197 -139 10 2 36 15 59 30
22 15 45 25 50 21 9 -5 13 9 10 35 -2 7 2 11 6 8 17 -11 -3 99 -22 125 -18 23
-67 60 -77 57 -1 -1 -24 -7 -51 -14z m-140 -157 c-3 -8 -6 -5 -6 6 -1 11 2 17
5 13 3 -3 4 -12 1 -19z"/>
<path d="M5947 8383 c-10 -9 -9 -23 2 -23 5 0 11 7 15 15 5 15 -5 20 -17 8z"/>
<path d="M5393 8273 c-3 -10 -14 -38 -24 -62 -11 -24 -19 -59 -19 -77 0 -30 3
-34 28 -34 16 0 32 8 40 20 7 11 19 20 27 20 12 0 14 7 9 26 -5 19 -4 25 5 20
6 -4 11 -18 11 -31 0 -18 7 -25 31 -30 22 -5 34 -3 40 6 12 20 2 47 -42 107
-33 42 -45 52 -70 52 -19 0 -32 -6 -36 -17z"/>
<path d="M4886 8228 c13 -45 21 -53 29 -29 4 13 2 28 -5 36 -19 22 -32 18 -24
-7z"/>
<path d="M5733 8008 c-6 -9 -5 -21 3 -38 13 -25 16 -22 27 28 6 24 -14 31 -30
10z"/>
<path d="M5143 7989 c-18 -5 -33 -14 -33 -19 0 -16 43 -50 75 -59 27 -7 30 -5
33 16 3 24 -22 74 -36 72 -4 0 -22 -5 -39 -10z"/>
<path d="M5404 7959 c-3 -5 -15 -7 -27 -4 -15 4 -18 3 -9 -3 7 -5 17 -22 22
-38 l8 -29 1 26 c1 15 8 33 17 40 14 11 19 10 34 -8 l17 -22 10 22 c10 21 8
23 -28 24 -21 1 -41 -3 -45 -8z"/>
<path d="M5551 7951 c-7 -5 -12 -13 -10 -18 2 -5 12 -1 22 9 18 19 12 24 -12
9z"/>
<path d="M5603 7945 c-3 -9 -3 -19 1 -22 3 -4 6 1 6 10 0 8 6 18 13 20 9 4 9
6 -1 6 -7 1 -15 -6 -19 -14z"/>
<path d="M5280 7924 c-14 -7 -29 -15 -33 -17 -5 -1 -5 -11 -1 -21 7 -18 8 -18
16 3 4 12 12 20 17 17 5 -3 14 1 21 9 9 11 16 12 25 5 9 -8 14 -6 19 5 7 19
-29 19 -64 -1z"/>
<path d="M5150 7900 c0 -6 7 -13 15 -17 24 -9 27 1 5 15 -13 8 -20 8 -20 2z"/>
<path d="M5565 7890 c-2 -3 0 -12 4 -19 6 -10 10 -10 16 -2 3 7 15 9 26 6 10
-4 19 -2 19 3 0 11 -59 22 -65 12z"/>
<path d="M5430 7871 c0 -28 15 -33 34 -12 18 20 12 31 -16 31 -11 0 -18 -7
-18 -19z"/>
<path d="M5494 7874 c3 -9 6 -20 6 -25 0 -18 15 -9 27 16 10 23 9 25 -14 25
-19 0 -24 -4 -19 -16z"/>
<path d="M5303 7868 c-24 -6 -43 -14 -43 -18 0 -15 26 -27 50 -25 14 2 40 4
58 4 29 1 33 4 30 24 -4 26 -31 30 -95 15z"/>
<path d="M2762 7820 c0 -14 2 -19 5 -12 2 6 2 18 0 25 -3 6 -5 1 -5 -13z"/>
<path d="M5232 7828 c3 -7 12 -14 21 -16 12 -2 15 1 11 12 -7 19 -38 22 -32 4z"/>
<path d="M4536 7385 c25 -19 40 -19 24 0 -7 8 -20 15 -28 15 -13 0 -12 -3 4
-15z"/>
<path d="M4785 7360 c3 -5 8 -10 11 -10 2 0 4 5 4 10 0 6 -5 10 -11 10 -5 0
-7 -4 -4 -10z"/>
<path d="M4015 6910 c3 -5 13 -10 21 -10 8 0 12 5 9 10 -3 6 -13 10 -21 10 -8
0 -12 -4 -9 -10z"/>
<path d="M2422 6804 c-12 -8 -22 -24 -22 -35 0 -18 1 -18 35 3 35 23 46 48 22
48 -7 0 -23 -7 -35 -16z"/>
<path d="M3055 6550 c-8 -13 -1 -24 14 -19 6 3 7 10 2 18 -6 10 -10 10 -16 1z"/>
</g>
</svg>
