<?xml version="1.0" encoding="utf-8"?>
<!-- Generator: Adobe Illustrator 19.2.0, SVG Export Plug-In . SVG Version: 6.00 Build 0)  -->
<svg version="1.1" id="Layer_1" xmlns="http://www.w3.org/2000/svg" xmlns:xlink="http://www.w3.org/1999/xlink" x="0px" y="0px"
	 viewBox="0 0 200 200" style="enable-background:new 0 0 200 200;" xml:space="preserve">
<style type="text/css">
	.st0{fill:#222222;}
</style>
<g>
	<path class="st0" d="M166.9,22.6c-11.8,0-21.1,3.6-27.5,10.6c-11,12-9.4,28.9-7.8,43.9c1.2,12.4,1.2,19.3,0,20.5
		c0,0-4,2.4-19.7-1.4C81.7,88.8,58.2,92,42,106c-23.3,20.1-20.5,54.1-20.3,55.5c0.8,7.8,7.2,13.6,15,13.6c0.4,0,1,0,1.4,0
		c8.2-0.8,14.4-8.2,13.6-16.4c0-0.2-1.4-19.9,10-29.9c10.6-9,29.3-6.8,43.1-3.4c13.6,3.4,33.1,6.6,46.5-5
		c13.6-11.8,11.8-29.9,10.4-46.1c-0.4-5.2-1.8-18.8,0.2-20.9c0.2-0.2,2-0.8,5.4-0.8c8.2,0,15-6.8,15-15S175.1,22.6,166.9,22.6z
		 M142.4,36c0.4-0.4,0.6-0.6,1-1c1.2,0,2.6,0.4,4.2,1.2c3.2,1.6,7.8,5.2,11.4,14.4c-0.2,0-0.2,0.2-0.4,0.2c-2.6,3-2.4,11.2-1.4,21.1
		c-10.2-8.4-18.6-5.8-22.3-3.8C134,56.5,134.6,44.5,142.4,36z M37.7,170.8c-6.2,0.6-11.4-3.8-12-10c0-0.6-0.4-5.8,0.2-13
		c4-1.2,13.4-3.6,21.7,2.8c-0.4,4.8-0.2,8.2-0.2,8.2C48,165,43.6,170.4,37.7,170.8z M47.8,149.5c-8.4-6-17.6-4-21.7-2.6
		c1-7.8,3.4-18,9.2-26.9c4.8-1.8,15.4-4,23.3,6C51.2,132.5,48.6,142.3,47.8,149.5z M59.4,125.3c-7.8-9.6-18-8.4-23.3-6.6
		c2.4-3.4,5.2-6.6,8.6-9.6c5.2-4.4,11.2-7.8,18-9.8c1.6,0.6,3.6,1.8,5.6,3.4c4.8,4,7.4,9.4,7.6,16.2C69.8,119.5,64,121.5,59.4,125.3
		z M76.8,118.7c-0.4-12-8-17.6-12.8-19.9c5.8-1.6,12-2.4,19-2.4c4.8,0,10,0.4,15.4,1.2c2.2,2.8,6,8.2,5.6,13.8
		c-0.2,3.2-1.8,6.2-4.8,8.6C91.9,118.7,84.1,117.9,76.8,118.7z M100.3,120.3c2.8-2.6,4.4-5.4,4.6-8.8c0.4-5.4-2.8-10.6-5.2-13.8
		c3.6,0.6,7.2,1.4,11.2,2.2c5.4,1.4,9.6,2,12.8,2.2c2,2.6,5.4,7.8,5.2,13.4c-0.2,3.2-1.6,6-4,8.6c-6.8-0.2-13.6-1.6-19.1-3
		C103.9,120.9,102.1,120.5,100.3,120.3z M148.4,117.4c-6.2,5.4-14.2,7-22.3,7c2.2-2.6,3.4-5.4,3.6-8.6c0.4-5.6-2.6-10.6-4.8-13.4
		c6.2,0.2,8.6-1,9.2-1.6c1.6-1.4,2.2-4.6,2.4-9.6c1.2,0,2.8,0,5,0.8c3.6,1.4,8.8,5.2,14.2,15.6C154,111.2,151.8,114.6,148.4,117.4z
		 M155.9,106.4c-8-15-15.8-16.4-19.5-16.2c0-3.6-0.4-8-0.8-13.4c-0.2-2.4-0.4-5-0.6-7.6c3.4-2,12-5,22.3,4c0,0.4,0,1,0.2,1.4
		C158.3,85.2,159.5,96.8,155.9,106.4z M166.9,48.5c-2,0-5.2,0.2-7.2,1.2c-5-12.2-11.6-15.2-15.4-15.8c5.6-5,13.2-7.4,22.5-7.4
		c6,0,11,5,11,11C177.9,43.7,172.9,48.5,166.9,48.5z"/>
</g>
</svg>
