<svg height="499pt" viewBox="-57 0 499 499.312" width="499pt" xmlns="http://www.w3.org/2000/svg"><path d="m361.996094 133.832031c-14.023438-16.855469-34.664063-26.519531-56.609375-26.519531h-5.511719l-16.621094 24.933594c-8.121094 12.1875-20.882812 20.160156-35.097656 22.371094v-23.304688h16v-48h-19.054688l-16-32h-9.847656l6.054688-18.167969-33.152344-33.144531-33.160156 33.152344 6.0625 18.160156h-9.847656l-16 32h-19.054688v48h16v23.3125c-14.214844-2.21875-26.96875-10.183594-35.097656-22.367188l-16.621094-24.945312h-5.511719c-21.945312 0-42.578125 9.664062-56.609375 26.511719-14.296875 17.160156-22.160156 38.886719-22.160156 61.199219 0 27.945312 12.167969 54.402343 33.390625 72.59375l1.113281.933593c12.847656 11.015625 28.519532 18.296875 45.085938 21.234375l-24.429688 40.71875 48.839844 130.265625v38.542969h176v-38.542969l48.839844-130.265625-24.433594-40.71875c16.570312-2.945312 32.265625-10.226562 45.082031-21.21875l1.128907-.964844c21.214843-18.175781 33.382812-44.632812 33.382812-72.578124 0-22.3125-7.863281-44.039063-22.160156-61.191407zm-101.65625 125.480469-21.625 54.054688-32.429688-54.054688zm-34.3125 64h-67.742188l33.871094-56.449219zm-48-64-32.429688 54.054688-21.625-54.054688zm-41.871094-16h-40c-11.089844 0-21.847656-3.992188-30.320312-11.242188l-1.0625-.910156c-10.5625-9.046875-16.617188-22.222656-16.617188-36.136718 0-11.101563 3.917969-21.925782 11.046875-30.480469 1.039063-1.246094 2.199219-2.398438 3.464844-3.429688 17.152343 24.277344 44.0625 39.351563 73.496093 41.710938v40.488281zm-3.816406 80h-54.054688l32.429688-54.054688zm5.175781 16 21 112h-40.816406l-42.007813-112zm37.28125 112-21-112h76.726563l-21.007813 112zm72-112h61.824219l-42.007813 112h-40.816406zm5.175781-16 21.625-54.054688 32.429688 54.054688zm20.183594-80h-24v-40.480469c29.421875-2.359375 56.335938-17.433593 73.496094-41.710937 1.253906 1.03125 2.421875 2.183594 3.464844 3.4375 7.117187 8.539062 11.039062 19.363281 11.039062 30.464844 0 13.914062-6.054688 27.089843-16.625 36.144531l-1.046875.894531c-8.480469 7.257812-19.242187 11.25-30.328125 11.25zm-94.839844-205.832031 14.839844-14.855469 14.839844 14.847656-4.609375 13.839844h-20.472657zm-12.214844 29.832031h54.109376l8 16h-70.109376zm-28.945312 32h112v16h-112zm96 32v112h-48v-64h-16v64h-16v-112zm-187.105469 125.085938-1.109375-.933594c-17.648437-15.144532-27.785156-37.175782-27.785156-60.441406 0-18.574219 6.550781-36.671876 18.457031-50.953126 10.34375-12.421874 25.261719-19.855468 41.320313-20.679687l11.824218 17.738281c11.101563 16.65625 28.804688 27.375 48.40625 29.6875v16c-24.960937-2.382812-47.640624-15.695312-61.71875-36.808594l-6.519531-9.800781-6.195312 2.808594c-5.6875 2.578125-10.804688 6.488281-14.816407 11.289063-9.519531 11.421874-14.757812 25.878906-14.757812 40.71875 0 18.59375 8.097656 36.191406 22.199219 48.28125l1.066406.910156c11.367187 9.738281 25.839844 15.097656 40.734375 15.097656h1.871094l-9.351563 15.582031c-16.015625-1.550781-31.351562-7.984375-43.625-18.496093zm219.105469 226.914062h-144v-16h144zm76.214844-227.863281-1.128906.964843c-12.238282 10.488282-27.605469 16.929688-43.613282 18.472657l-9.34375-15.574219h1.871094c14.894531 0 29.367188-5.359375 40.742188-15.105469l1.050781-.894531c14.109375-12.097656 22.207031-29.695312 22.207031-48.289062 0-14.832032-5.242188-29.296876-14.753906-40.710938-4.007813-4.816406-9.125-8.71875-14.8125-11.296875l-6.195313-2.808594-6.519531 9.800781c-14.078125 21.121094-36.757812 34.425782-61.71875 36.808594v-16c19.601562-2.3125 37.296875-13.03125 48.40625-29.6875l11.824219-17.738281c16.058593.824219 30.976562 8.257813 41.320312 20.6875 11.898438 14.273437 18.449219 32.371094 18.449219 50.945313 0 23.265624-10.136719 45.296874-27.785156 60.425781zm0 0"/><path d="m168.15625 147.3125h16v16h-16zm0 0"/></svg>