<svg height="512pt" viewBox="0 0 512 512" width="512pt" xmlns="http://www.w3.org/2000/svg"><path d="m437.019531 74.980469c-48.351562-48.351563-112.640625-74.980469-181.019531-74.980469s-132.667969 26.628906-181.019531 74.980469c-48.351563 48.351562-74.980469 112.640625-74.980469 181.019531s26.628906 132.667969 74.980469 181.019531c48.351562 48.351563 112.640625 74.980469 181.019531 74.980469s132.667969-26.628906 181.019531-74.980469c48.351563-48.351562 74.980469-112.640625 74.980469-181.019531s-26.628906-132.667969-74.980469-181.019531zm-181.019531 417.019531c-130.132812 0-236-105.867188-236-236s105.867188-236 236-236 236 105.867188 236 236-105.867188 236-236 236zm0 0"/><path d="m220.101562 63.117188c.578126 0 1.167969-.050782 1.75-.160157 11.1875-1.960937 22.679688-2.960937 34.148438-2.960937 6.800781 0 13.660156.351562 20.378906 1.050781.339844.03125.691406.050781 1.042969.050781 5.128906 0 9.398437-3.859375 9.929687-8.96875.277344-2.660156-.5-5.261718-2.179687-7.339844-1.691406-2.070312-4.082031-3.359374-6.742187-3.640624-7.398438-.761719-14.9375-1.152344-22.429688-1.152344-12.621094 0-25.28125 1.101562-37.609375 3.273437-2.640625.457031-4.929687 1.917969-6.460937 4.097657-1.539063 2.191406-2.128907 4.839843-1.660157 7.480468.839844 4.789063 4.96875 8.269532 9.832031 8.269532zm0 0"/><path d="m69.359375 168.128906c1.441406.769532 3.0625 1.179688 4.691406 1.179688 3.707031 0 7.089844-2.03125 8.828125-5.300782 1.261719-2.359374 1.519532-5.070312.738282-7.621093-.777344-2.558594-2.5-4.648438-4.859376-5.910157-1.449218-.769531-3.070312-1.179687-4.6875-1.179687-3.710937 0-7.101562 2.042969-8.839843 5.3125-2.589844 4.859375-.742188 10.929687 4.128906 13.519531zm0 0"/><path d="m91.730469 131.277344c1.800781 1.511718 4.078125 2.339844 6.417969 2.339844 2.960937 0 5.75-1.300782 7.660156-3.558594 0 0 .011718 0 .011718-.011719 11.75-14 25.390626-26.289063 40.527344-36.527344 4.5625-3.089843 5.773438-9.320312 2.683594-13.890625-1.859375-2.75-4.960938-4.402344-8.292969-4.402344-2 0-3.9375.601563-5.597656 1.722657-16.660156 11.269531-31.679687 24.808593-44.640625 40.238281-3.539062 4.21875-2.988281 10.539062 1.230469 14.089844zm0 0"/><path d="m178.730469 74.988281c1.289062 0 2.550781-.25 3.75-.742187 2.480469-1 4.417969-2.90625 5.457031-5.367188 1.042969-2.460937 1.0625-5.171875.0625-7.652344-1.539062-3.789062-5.179688-6.25-9.269531-6.25-1.292969 0-2.550781.25-3.75.730469-2.480469 1.011719-4.421875 2.910157-5.460938 5.371094-1.039062 2.460937-1.058593 5.179687-.058593 7.660156 1.539062 3.789063 5.179687 6.25 9.269531 6.25zm0 0"/><path d="m50.019531 266.457031c2.671875-.007812 5.179688-1.050781 7.070313-2.949219 1.878906-1.890624 2.921875-4.398437 2.910156-7.070312v-.441406c0-18.359375 2.53125-36.527344 7.53125-54.019532.738281-2.570312.429688-5.269531-.871094-7.597656-1.289062-2.339844-3.421875-4.03125-5.988281-4.761718-.902344-.257813-1.832031-.390626-2.75-.390626-4.441406 0-8.390625 2.980469-9.613281 7.25-5.519532 19.269532-8.308594 39.300782-8.308594 59.519532v.480468c.011719 5.5 4.5 9.980469 10 9.980469zm0 0"/><path d="m316.460938 69.496094c1 .332031 2.039062.492187 3.078124.492187 4.351563 0 8.171876-2.78125 9.511719-6.921875.828125-2.539062.609375-5.25-.601562-7.628906-1.21875-2.378906-3.289063-4.140625-5.828125-4.960938-1-.328124-2.042969-.488281-3.082032-.488281-4.351562 0-8.167968 2.78125-9.507812 6.917969-.832031 2.542969-.609375 5.25.597656 7.632812 1.222656 2.378907 3.292969 4.140626 5.832032 4.957032zm0 0"/><path d="m440.171875 188.769531c6.25 17.128907 10.066406 35.070313 11.347656 53.339844.359375 5.207031 4.742188 9.296875 9.960938 9.296875.230469 0 .46875-.007812.710937-.027344 5.5-.382812 9.660156-5.171875 9.277344-10.671875-1.410156-20.140625-5.617188-39.929687-12.507812-58.800781-1.441407-3.929688-5.210938-6.566406-9.402344-6.566406-1.167969 0-2.316406.207031-3.429688.609375-2.507812.917969-4.507812 2.757812-5.628906 5.179687-1.128906 2.417969-1.25 5.128906-.328125 7.640625zm0 0"/><path d="m422.160156 151.988281c1.839844 2.929688 5.011719 4.679688 8.480469 4.679688 1.867187 0 3.707031-.519531 5.296875-1.519531 4.671875-2.941407 6.09375-9.121094 3.160156-13.789063l-.007812-.011719c-1.839844-2.929687-5.011719-4.679687-8.472656-4.679687-1.878907 0-3.707032.53125-5.308594 1.53125-2.261719 1.417969-3.832032 3.640625-4.429688 6.238281-.601562 2.601562-.140625 5.28125 1.269532 7.539062 0 0 0 .011719.011718.011719zm0 0"/><path d="m353.878906 86.148438c15.8125 9.128906 30.28125 20.429687 43 33.589843 1.902344 1.960938 4.460938 3.039063 7.191406 3.039063 2.609376 0 5.078126-.988282 6.949219-2.808594 3.96875-3.832031 4.070313-10.171875.238281-14.140625-14.019531-14.488281-29.957031-26.929687-47.367187-37-1.53125-.871094-3.25-1.339844-5-1.339844-3.5625 0-6.890625 1.917969-8.671875 5-1.328125 2.308594-1.6875 5.007813-1 7.589844.691406 2.578125 2.351562 4.738281 4.660156 6.070313zm0 0"/><path d="m359.261719 424.289062c-1.761719 0-3.492188.457032-5.011719 1.347657-15.820312 9.179687-32.8125 16.082031-50.519531 20.511719-2.589844.648437-4.78125 2.269531-6.152344 4.558593-1.367187 2.289063-1.769531 4.980469-1.128906 7.570313 1.121093 4.460937 5.109375 7.570312 9.699219 7.570312.8125 0 1.632812-.101562 2.429687-.300781 19.53125-4.878906 38.273437-12.488281 55.710937-22.609375 4.761719-2.769531 6.390626-8.898438 3.632813-13.667969-1.792969-3.082031-5.113281-4.980469-8.660156-4.980469zm0 0"/><path d="m263.1875 451.867188c-.007812 0-.007812 0-.019531 0-5.507813.199218-9.828125 4.839843-9.628907 10.359374.089844 2.601563 1.179688 5.03125 3.058594 6.839844 1.871094 1.800782 4.332032 2.800782 6.933594 2.800782.117188 0 .238281 0 .359375-.007813h.007813c2.671874-.101563 5.140624-1.230469 6.949218-3.179687 1.820313-1.960938 2.773438-4.5 2.671875-7.171876-.089843-2.609374-1.171875-5.039062-3.050781-6.851562-1.957031-1.878906-4.546875-2.878906-7.28125-2.789062zm0 0"/><path d="m394.039062 398.90625c-2.480468 0-4.859374.910156-6.699218 2.582031-4.089844 3.691407-4.410156 10.03125-.71875 14.121094 1.898437 2.097656 4.597656 3.296875 7.429687 3.296875 2.480469 0 4.859375-.917969 6.699219-2.578125 4.089844-3.699219 4.410156-10.039063.71875-14.128906-1.898438-2.089844-4.597656-3.292969-7.429688-3.292969zm0 0"/><path d="m453.121094 316.839844c-1.101563-.402344-2.25-.601563-3.410156-.601563-4.191407 0-7.972657 2.648438-9.402344 6.589844v.011719c-6.21875 17.148437-14.828125 33.359375-25.578125 48.15625-3.238281 4.472656-2.238281 10.730468 2.21875 13.972656 1.722656 1.25 3.75 1.910156 5.871093 1.910156 3.191407 0 6.21875-1.539062 8.101563-4.132812 11.859375-16.339844 21.339844-34.199219 28.199219-53.097656.910156-2.511719.777344-5.21875-.351563-7.640626-1.128906-2.417968-3.140625-4.261718-5.648437-5.167968zm0 0"/><path d="m461.421875 274.527344c-.460937-.058594-.921875-.089844-1.382813-.089844-4.960937 0-9.210937 3.710938-9.890624 8.628906-.367188 2.652344.320312 5.28125 1.929687 7.410156 1.609375 2.132813 3.960937 3.5 6.609375 3.871094.453125.058594.921875.089844 1.382812.089844 4.960938 0 9.210938-3.710938 9.890626-8.628906.359374-2.652344-.320313-5.28125-1.941407-7.410156-1.609375-2.128907-3.949219-3.5-6.597656-3.871094zm0 0"/><path d="m135.628906 410.699219c0-.011719-.007812-.011719-.007812-.011719-1.773438-1.378906-3.902344-2.109375-6.140625-2.109375-3.109375 0-5.992188 1.398437-7.902344 3.851563-1.640625 2.109374-2.359375 4.726562-2.027344 7.378906.328125 2.648437 1.667969 5.007812 3.769531 6.648437 1.78125 1.390625 3.898438 2.121094 6.140626 2.121094 3.109374 0 5.988281-1.410156 7.898437-3.859375 1.640625-2.101562 2.359375-4.722656 2.039063-7.371094-.328126-2.648437-1.667969-5.007812-3.769532-6.648437zm0 0"/><path d="m64.328125 297.179688c-.976563-4.589844-5.089844-7.910157-9.769531-7.910157-.699219 0-1.410156.070313-2.097656.21875-5.394532 1.148438-8.84375 6.480469-7.691407 11.859375v.011719c.980469 4.578125 5.089844 7.910156 9.769531 7.910156.699219 0 1.410157-.070312 2.101563-.222656 5.390625-1.160156 8.839844-6.480469 7.6875-11.867187zm0 0"/><path d="m77.058594 336.097656c-1.609375-3.589844-5.199219-5.910156-9.128906-5.910156-1.410157 0-2.789063.289062-4.089844.878906-5.03125 2.25-7.289063 8.179688-5.03125 13.210938 8.222656 18.351562 18.992187 35.46875 31.992187 50.890625 1.898438 2.261719 4.6875 3.550781 7.648438 3.550781 2.351562 0 4.640625-.839844 6.441406-2.351562 4.21875-3.558594 4.75-9.878907 1.199219-14.097657-11.800782-13.992187-21.570313-29.53125-29.03125-46.171875zm0 0"/><path d="m222.28125 449.109375c-18-3.121094-35.460938-8.75-51.890625-16.742187-1.382813-.667969-2.851563-1.007813-4.371094-1.007813-3.859375 0-7.308593 2.148437-9 5.628906-2.410156 4.960938-.339843 10.949219 4.621094 13.359375 18.117187 8.820313 37.378906 15.03125 57.226563 18.46875.570312.101563 1.140624.152344 1.722656.152344 4.871094 0 9.007812-3.492188 9.839844-8.289062.449218-2.640626-.140626-5.292969-1.679688-7.472657-1.539062-2.1875-3.839844-3.640625-6.46875-4.097656zm0 0"/><path d="m256 80c-97.046875 0-176 78.953125-176 176s78.953125 176 176 176 176-78.953125 176-176-78.953125-176-176-176zm138.890625 246.992188c-23.464844-21.496094-44.578125-32.042969-62.867187-31.355469-2.164063.082031-4.167969.324219-6.023438.675781v-28.847656c4.265625-2.367188 11.882812-5.789063 21.824219-6.90625 20.613281-2.3125 41.246093 6.035156 61.386719 24.828125-2.8125 14.699219-7.683594 28.675781-14.320313 41.605469zm-49.300781-86.304688c-7.582032.851562-14.183594 2.722656-19.589844 4.804688v-29.78125c4.882812-5.265626 18.222656-17.738282 35.988281-18.949219 14.765625-1.003907 29.945313 5.890625 45.132813 20.464843 3.183594 12.402344 4.878906 25.394532 4.878906 38.773438 0 1.851562-.042969 3.691406-.109375 5.527344-26.253906-20-49.980469-22.675782-66.300781-20.839844zm-89.589844-140.6875c59.910156 0 112.03125 33.953125 138.15625 83.621094-11.019531-5.289063-22.226562-7.585938-33.527344-6.8125-14.074218.960937-25.824218 6.5625-34.628906 12.605468v-17.414062c0-2.664062-1.0625-5.214844-2.949219-7.09375l-20-19.878906c-3.902343-3.878906-10.199219-3.878906-14.101562 0l-12.929688 12.851562-12.949219-12.949218c-3.90625-3.90625-10.234374-3.90625-14.140624 0l-12.929688 12.925781-12.929688-12.929688c-1.875-1.875-4.417968-2.929687-7.070312-2.929687s-5.195312 1.054687-7.070312 2.929687l-20 20.003907c-1.875 1.875-2.929688 4.417968-2.929688 7.070312v17.347656c-8.789062-6.019531-20.507812-11.582031-34.535156-12.539062-11.347656-.777344-22.59375 1.535156-33.648438 6.863281 26.117188-49.695313 78.253906-83.671875 138.183594-83.671875zm10 202v-30h40v30zm40 20v4.648438l-40 26.667968v-31.316406zm-40-70v-30h40v30zm-10-50h-50v-25.859375l10-10 12.929688 12.929687c1.875 1.875 4.417968 2.929688 7.070312 2.929688s5.195312-1.054688 7.070312-2.929688l12.929688-12.929687 12.929688 12.929687c3.894531 3.898438 10.214843 3.90625 14.121093.023438l12.949219-12.875 10 9.941406v25.839844zm-10 20v131.316406l-40-26.667968v-104.648438zm-143.195312 63.460938c39.53125-36.867188 72.148437-24.269532 83.195312-18.085938v28.925781c-1.832031-.34375-3.796875-.582031-5.929688-.664062-18.332031-.691407-39.445312 9.878906-62.929687 31.414062-6.640625-12.925781-11.519531-26.894531-14.335937-41.589843zm-2.804688-29.460938c0-13.339844 1.6875-26.289062 4.851562-38.652344 15.171876-14.605468 30.332032-21.546875 45.089844-20.597656 17.785156 1.144531 31.078125 13.488281 36.058594 18.851562v29.851563c-5.390625-2.066406-11.960938-3.921875-19.496094-4.765625-16.34375-1.835938-40.101562.832031-66.390625 20.894531-.066406-1.855469-.113281-3.710937-.113281-5.582031zm27.664062 88.582031c34.113282-32.480469 51.976563-30.179687 58.335938-27.449219v11.433594c-14.5 19.273438-18.886719 39.367188-13.199219 59.335938-17.796875-11.265625-33.164062-26.03125-45.136719-43.320313zm74.785157 57.949219c-14.6875-19.613281-16.007813-37.914062-3.984375-56.871094 16.332031 10.890625 51.949218 34.636719 51.988281 34.660156 1.621094 1.078126 3.601563 1.679688 5.550781 1.679688 1.9375 0 3.929688-.601562 5.542969-1.679688 0 0 40.433594-26.957031 52.21875-34.8125 12.097656 18.957032 10.855469 37.246094-3.75 56.847657-16.839844 6.234375-35.035156 9.644531-54.015625 9.644531-18.804688 0-36.84375-3.34375-53.550781-9.46875zm137.183593-14.898438c5.609376-20.03125 1.066407-40.183593-13.632812-59.503906v-10.953125c6.273438-2.746093 24.128906-5.234375 58.371094 27.351563-11.878906 17.175781-27.105469 31.863281-44.738282 43.105468zm0 0"/></svg>