<svg id="Capa_1" enable-background="new 0 0 510.423 510.423" height="512" viewBox="0 0 510.423 510.423" width="512" xmlns="http://www.w3.org/2000/svg"><g><path d="m415.396 230.625c0-69.019-43.877-127.982-105.202-150.462v-33.036l-54.982-47.127-54.982 47.127v33.035c-61.325 22.48-105.202 81.443-105.202 150.462v149.126l49.493 22.392-25.15 48.339 22.833 19.028c31.661 26.384 71.795 40.915 113.008 40.915s81.347-14.53 113.008-40.915l22.833-19.028-25.15-48.339 49.493-22.392zm-105.24-118.004c42.423 19.833 72.465 61.877 75.055 111.082h-115v-59.676c22.592-6.416 39.294-26.939 39.945-51.406zm-116.576 159.981v-18.898h123.263v18.898l-61.631 26.414zm36.65-211.677 24.982-21.413 24.982 21.413v50.218c0 13.775-11.207 24.982-24.982 24.982s-24.982-11.207-24.982-24.982zm-29.963 51.696c.651 24.467 17.353 44.989 39.945 51.407v59.676h-115c2.59-49.206 32.632-91.25 75.055-111.083zm-75.239 247.774v-106.691h38.552v38.681l76.632 32.842v87.28zm223.986 86.067c-26.28 21.9-59.593 33.961-93.802 33.961s-67.523-12.061-93.802-33.961l-4.276-3.563 14.762-28.373 83.316 37.694 83.316-37.694 14.762 28.373zm36.382-86.067-115.184 52.111v-87.28l76.631-32.842v-38.681h38.553z"/></g></svg>