<?xml version="1.0" encoding="UTF-8" standalone="no"?>
<!DOCTYPE svg PUBLIC "-//W3C//DTD SVG 1.1//EN" "http://www.w3.org/Graphics/SVG/1.1/DTD/svg11.dtd">
<svg version="1.1" xmlns="http://www.w3.org/2000/svg" xmlns:xlink="http://www.w3.org/1999/xlink" preserveAspectRatio="xMidYMid meet" viewBox="22.385321100917437 4.76788990825688 28.799999999999997 64.7" width="24.8" height="60.7"><defs><path d="M31.29 43.37C29.49 43.37 28.49 43.37 28.29 43.37C27.19 43.37 24.29 37.47 24.29 37.47C24.29 36.37 25.19 35.47 26.29 35.47C28.07 35.47 42.31 35.47 44.09 35.47C45.19 35.47 46.09 36.37 46.09 37.47C46.09 37.47 43.19 43.37 42.09 43.37C41.89 43.37 40.89 43.37 39.09 43.37" id="aDuguZ1ew"></path><path d="M42.19 43.37C40.39 56.03 39.39 63.06 39.19 64.47C39.19 65.57 38.29 66.47 37.19 66.47C36.79 66.47 33.59 66.47 33.19 66.47C32.09 66.47 31.19 65.57 31.19 64.47C30.99 63.06 29.99 56.03 28.19 43.37" id="bSuyMG8ke"></path><path d="M29.29 19.57C26.09 21.27 23.39 24.07 23.39 26.47C23.39 33.07 28.69 32.37 35.29 32.37C41.89 32.37 47.19 32.97 47.19 26.47C47.19 25.07 46.89 25.87 46.39 23.47C46.39 23.47 48.19 18.47 48.19 17.57C48.19 17.57 43.69 17.17 41.69 20.07" id="b3FEA0Vqg"></path><path d="M27.39 24.57C27.39 24.57 32.39 24.57 29.39 17.67C27.39 13.07 34.39 14.67 35.29 9.77C36.29 4.77 39.29 8.07 39.29 5.77C39.29 5.77 41.69 9.77 39.69 12.67" id="c5qBaZGKA"></path><path d="M35.29 17.57C35.29 17.57 39.29 15.57 40.29 10.67C41.29 5.67 43.29 10.67 44.29 11.67C45.29 12.67 43.29 14.67 42.29 17.57C41.29 20.57 42.29 23.47 39.29 25.47" id="bgGaPO1nc"></path></defs><g><g><use xlink:href="#aDuguZ1ew" opacity="1" fill="#000000" fill-opacity="0"></use><g><use xlink:href="#aDuguZ1ew" opacity="1" fill-opacity="0" stroke="#000000" stroke-width="2" stroke-opacity="1"></use></g></g><g><use xlink:href="#bSuyMG8ke" opacity="1" fill="#000000" fill-opacity="0"></use><g><use xlink:href="#bSuyMG8ke" opacity="1" fill-opacity="0" stroke="#000000" stroke-width="2" stroke-opacity="1"></use></g></g><g><use xlink:href="#b3FEA0Vqg" opacity="1" fill="#000000" fill-opacity="0"></use><g><use xlink:href="#b3FEA0Vqg" opacity="1" fill-opacity="0" stroke="#000000" stroke-width="2" stroke-opacity="1"></use></g></g><g><use xlink:href="#c5qBaZGKA" opacity="1" fill="#000000" fill-opacity="0"></use><g><use xlink:href="#c5qBaZGKA" opacity="1" fill-opacity="0" stroke="#000000" stroke-width="2" stroke-opacity="1"></use></g></g><g><use xlink:href="#bgGaPO1nc" opacity="1" fill="#000000" fill-opacity="0"></use><g><use xlink:href="#bgGaPO1nc" opacity="1" fill-opacity="0" stroke="#000000" stroke-width="2" stroke-opacity="1"></use></g></g></g></svg>